<svg xmlns="http://www.w3.org/2000/svg" xmlns:xlink="http://www.w3.org/1999/xlink" viewBox="0 0 240 292"><path d="M 43.286 5.175 L 195.942 5.175 L 195.942 4.314 L 43.286 4.314 Z M 230.778 40.058 L 230.778 291.795 L 231.639 291.795 L 231.639 40.058 Z M 8.449 291.795 L 8.449 40.058 L 7.589 40.058 L 7.589 291.795 Z M 195.942 5.175 C 215.181 5.175 230.779 20.793 230.779 40.058 L 231.639 40.058 C 231.639 20.317 215.657 4.314 195.942 4.314 Z M 43.286 4.314 C 23.571 4.314 7.589 20.317 7.589 40.058 L 8.449 40.058 C 8.449 20.793 24.046 5.175 43.286 5.175 Z" fill="rgb(117,117,117)"></path><path d="M 8.019 40.058 C 8.019 20.555 23.809 4.744 43.286 4.744 L 195.942 4.744 C 215.419 4.744 231.209 20.555 231.209 40.058 L 231.209 291.795 L 8.019 291.795 Z" fill="rgb(0,0,0)" stroke-width="1.5" stroke="rgb(117, 117, 117)" stroke-miterlimit="10"></path><path d="M 3.269 119.767 L 3.269 99.083 L 7.804 99.083 L 7.804 119.767 Z" fill="rgb(0,0,0)" stroke-width="0.8" stroke="rgb(117,117,117)" stroke-miterlimit="10" stroke-dasharray=""></path><path d="M 3.269 174.25 L 3.269 137.927 L 7.804 137.927 L 7.804 174.25 Z" fill="rgb(0,0,0)" stroke-width="0.8" stroke="rgb(117,117,117)" stroke-miterlimit="10" stroke-dasharray=""></path><path d="M 231.467 209.564 L 231.467 151.044 L 236.001 151.044 L 236.001 209.564 Z" fill="rgb(0,0,0)" stroke-width="0.8" stroke="rgb(117,117,117)" stroke-miterlimit="10" stroke-dasharray=""></path><path d="M 3.485 219.149 L 3.485 182.826 L 8.019 182.826 L 8.019 219.149 Z" fill="rgb(0,0,0)" stroke-width="0.8" stroke="rgb(117,117,117)" stroke-miterlimit="10" stroke-dasharray=""></path><path d="M 135.484 26.941 C 135.484 23.041 138.642 19.879 142.538 19.879 C 146.433 19.879 149.591 23.041 149.591 26.941 C 149.591 30.842 146.433 34.004 142.538 34.004 C 138.642 34.004 135.484 30.842 135.484 26.941 Z" fill="rgb(0,0,0)" stroke-width="0.5" stroke="rgb(117,117,117)" stroke-miterlimit="10" stroke-dasharray=""></path><path d="M 139.01 26.942 C 139.01 24.991 140.589 23.41 142.537 23.41 C 144.485 23.41 146.063 24.991 146.063 26.942 C 146.063 28.892 144.485 30.473 142.537 30.473 C 140.589 30.473 139.01 28.892 139.01 26.942 Z" fill="rgb(117,117,117)" stroke-width="0.5" stroke="rgb(117,117,117)" stroke-miterlimit="10" stroke-dasharray=""></path><path d="M 142.537 26.437 C 142.537 25.601 143.213 24.924 144.048 24.924 C 144.883 24.924 145.56 25.601 145.56 26.437 C 145.56 27.273 144.883 27.951 144.048 27.951 C 143.213 27.951 142.537 27.273 142.537 26.437 Z" fill="rgb(0,0,0)" stroke-width="0.5" stroke="rgb(117,117,117)" stroke-miterlimit="10" stroke-dasharray=""></path></svg>