<?xml version="1.0" encoding="UTF-8" standalone="no"?>
<svg xmlns="http://www.w3.org/2000/svg" width="1168" height="415" viewBox="0 0 1168 415" shape-rendering="crispEdges">
  <title>Skyline Vector (White on Black)</title>
  <g fill="#ffffff" fill-rule="evenodd" stroke="none">
    <path d="M 0.00 338.50 L 1.00 338.50 L 2.00 338.50 L 3.00 338.50 L 4.00 338.50 L 5.00 338.50 L 6.00 338.50 L 7.00 338.50 L 8.00 338.50 L 9.00 338.50 L 10.00 338.50 L 11.00 338.50 L 12.00 338.50 L 13.00 338.50 L 14.00 338.50 L 15.00 338.50 L 16.00 338.50 L 17.00 338.50 L 18.00 338.50 L 19.00 338.50 L 20.00 338.50 L 21.00 338.50 L 22.00 338.50 L 23.00 338.50 L 24.00 338.50 L 25.00 338.50 L 26.00 338.50 L 27.00 338.50 L 28.00 338.50 L 29.00 338.50 L 29.50 338.00 L 29.50 337.00 L 29.50 336.00 L 29.50 335.00 L 29.50 334.00 L 29.50 333.00 L 29.50 332.00 L 29.50 331.00 L 29.50 330.00 L 29.50 329.00 L 29.50 328.00 L 29.50 327.00 L 29.50 326.00 L 29.50 325.00 L 29.50 324.00 L 29.50 323.00 L 29.50 322.00 L 29.50 321.00 L 29.50 320.00 L 29.50 319.00 L 29.50 318.00 L 29.50 317.00 L 29.50 316.00 L 29.50 315.00 L 29.50 314.00 L 29.50 313.00 L 29.50 312.00 L 29.50 311.00 L 29.50 310.00 L 29.50 309.00 L 29.50 308.00 L 29.50 307.00 L 29.50 306.00 L 29.50 305.00 L 29.50 304.00 L 29.50 303.00 L 29.50 302.00 L 29.50 301.00 L 29.50 300.00 L 29.50 299.00 L 29.50 298.00 L 29.50 297.00 L 29.50 296.00 L 29.50 295.00 L 29.50 294.00 L 29.50 293.00 L 29.50 292.00 L 29.50 291.00 L 29.50 290.00 L 29.50 289.00 L 29.50 288.00 L 29.50 287.00 L 29.50 286.00 L 29.50 285.00 L 29.50 284.00 L 29.50 283.00 L 29.50 282.00 L 29.50 281.00 L 29.50 280.00 L 29.50 279.00 L 30.00 278.50 L 31.00 278.50 L 32.00 278.50 L 33.00 278.50 L 34.00 278.50 L 35.00 278.50 L 36.00 278.50 L 37.00 278.50 L 38.00 278.50 L 39.00 278.50 L 40.00 278.50 L 41.00 278.50 L 42.00 278.50 L 43.00 278.50 L 44.00 278.50 L 45.00 278.50 L 46.00 278.50 L 47.00 278.50 L 48.00 278.50 L 49.00 278.50 L 50.00 278.50 L 51.00 278.50 L 52.00 278.50 L 53.00 278.50 L 54.00 278.50 L 55.00 278.50 L 56.00 278.50 L 57.00 278.50 L 58.00 278.50 L 59.00 278.50 L 60.00 278.50 L 61.00 278.50 L 62.00 278.50 L 63.00 278.50 L 64.00 278.50 L 65.00 278.50 L 66.00 278.50 L 67.00 278.50 L 68.00 278.50 L 68.50 279.00 L 68.50 280.00 L 68.50 281.00 L 68.50 282.00 L 68.50 283.00 L 68.50 284.00 L 68.50 285.00 L 68.50 286.00 L 68.50 287.00 L 68.50 288.00 L 68.50 289.00 L 68.50 290.00 L 68.50 291.00 L 68.50 292.00 L 68.50 293.00 L 68.50 294.00 L 68.50 295.00 L 68.50 296.00 L 68.50 297.00 L 68.50 298.00 L 68.50 299.00 L 68.50 300.00 L 68.50 301.00 L 68.50 302.00 L 68.50 303.00 L 68.50 304.00 L 68.50 305.00 L 68.50 306.00 L 68.50 307.00 L 68.50 308.00 L 68.50 309.00 L 68.50 310.00 L 68.50 311.00 L 68.50 312.00 L 68.50 313.00 L 68.50 314.00 L 68.50 315.00 L 68.50 316.00 L 68.50 317.00 L 68.50 318.00 L 68.50 319.00 L 68.50 320.00 L 68.50 321.00 L 68.50 322.00 L 68.50 323.00 L 68.50 324.00 L 68.50 325.00 L 68.50 326.00 L 68.50 327.00 L 68.50 328.00 L 68.50 329.00 L 68.50 330.00 L 68.50 331.00 L 68.50 332.00 L 68.50 333.00 L 68.50 334.00 L 68.50 335.00 L 68.50 336.00 L 68.50 337.00 L 68.50 338.00 L 68.50 339.00 L 68.50 340.00 L 68.50 341.00 L 68.50 342.00 L 68.50 343.00 L 68.50 344.00 L 68.50 345.00 L 68.50 346.00 L 69.00 346.50 L 70.00 346.50 L 71.00 346.50 L 72.00 346.50 L 73.00 346.50 L 74.00 346.50 L 75.00 346.50 L 76.00 346.50 L 77.00 346.50 L 78.00 346.50 L 79.00 346.50 L 80.00 346.50 L 81.00 346.50 L 82.00 346.50 L 83.00 346.50 L 84.00 346.50 L 85.00 346.50 L 86.00 346.50 L 87.00 346.50 L 87.50 346.00 L 87.50 345.00 L 87.50 344.00 L 87.50 343.00 L 87.50 342.00 L 87.50 341.00 L 87.50 340.00 L 87.50 339.00 L 87.50 338.00 L 87.50 337.00 L 87.50 336.00 L 87.50 335.00 L 87.50 334.00 L 87.50 333.00 L 87.50 332.00 L 87.50 331.00 L 87.50 330.00 L 87.50 329.00 L 87.50 328.00 L 87.50 327.00 L 87.50 326.00 L 87.50 325.00 L 87.50 324.00 L 87.50 323.00 L 87.50 322.00 L 87.50 321.00 L 87.50 320.00 L 87.50 319.00 L 87.50 318.00 L 87.50 317.00 L 87.50 316.00 L 87.50 315.00 L 87.50 314.00 L 87.50 313.00 L 87.50 312.00 L 87.50 311.00 L 87.50 310.00 L 87.50 309.00 L 87.50 308.00 L 87.50 307.00 L 88.00 306.50 L 89.00 306.50 L 90.00 306.50 L 91.00 306.50 L 92.00 306.50 L 93.00 306.50 L 94.00 306.50 L 95.00 306.50 L 96.00 306.50 L 97.00 306.50 L 98.00 306.50 L 99.00 306.50 L 100.00 306.50 L 101.00 306.50 L 102.00 306.50 L 103.00 306.50 L 104.00 306.50 L 105.00 306.50 L 106.00 306.50 L 107.00 306.50 L 108.00 306.50 L 109.00 306.50 L 110.00 306.50 L 111.00 306.50 L 112.00 306.50 L 113.00 306.50 L 114.00 306.50 L 114.50 307.00 L 115.00 307.50 L 115.50 308.00 L 115.50 309.00 L 115.50 310.00 L 115.50 311.00 L 115.50 312.00 L 115.50 313.00 L 115.50 314.00 L 115.50 315.00 L 116.00 315.50 L 117.00 315.50 L 118.00 315.50 L 119.00 315.50 L 120.00 315.50 L 121.00 315.50 L 122.00 315.50 L 123.00 315.50 L 124.00 315.50 L 125.00 315.50 L 126.00 315.50 L 127.00 315.50 L 128.00 315.50 L 129.00 315.50 L 130.00 315.50 L 131.00 315.50 L 132.00 315.50 L 133.00 315.50 L 133.50 316.00 L 133.50 317.00 L 133.50 318.00 L 133.50 319.00 L 133.50 320.00 L 133.50 321.00 L 133.50 322.00 L 133.50 323.00 L 133.50 324.00 L 133.50 325.00 L 133.50 326.00 L 133.50 327.00 L 133.50 328.00 L 133.50 329.00 L 133.50 330.00 L 133.50 331.00 L 133.50 332.00 L 133.50 333.00 L 133.50 334.00 L 133.50 335.00 L 133.50 336.00 L 133.50 337.00 L 133.50 338.00 L 133.50 339.00 L 133.50 340.00 L 133.50 341.00 L 133.50 342.00 L 133.50 343.00 L 133.50 344.00 L 133.50 345.00 L 133.50 346.00 L 133.50 347.00 L 133.50 348.00 L 133.50 349.00 L 133.50 350.00 L 133.50 351.00 L 133.50 352.00 L 133.50 353.00 L 133.50 354.00 L 133.50 355.00 L 134.00 355.50 L 134.50 356.00 L 135.00 356.50 L 136.00 356.50 L 137.00 356.50 L 138.00 356.50 L 139.00 356.50 L 140.00 356.50 L 140.50 356.00 L 140.50 355.00 L 140.50 354.00 L 140.50 353.00 L 140.50 352.00 L 140.50 351.00 L 140.50 350.00 L 140.50 349.00 L 140.50 348.00 L 140.50 347.00 L 140.50 346.00 L 140.50 345.00 L 140.50 344.00 L 140.50 343.00 L 140.50 342.00 L 140.50 341.00 L 140.50 340.00 L 140.50 339.00 L 140.50 338.00 L 140.50 337.00 L 140.50 336.00 L 140.50 335.00 L 140.50 334.00 L 140.50 333.00 L 140.50 332.00 L 140.50 331.00 L 140.50 330.00 L 140.50 329.00 L 140.50 328.00 L 140.50 327.00 L 140.50 326.00 L 140.50 325.00 L 140.50 324.00 L 140.50 323.00 L 140.50 322.00 L 140.50 321.00 L 140.50 320.00 L 140.50 319.00 L 140.50 318.00 L 140.50 317.00 L 140.50 316.00 L 140.50 315.00 L 140.50 314.00 L 140.50 313.00 L 140.50 312.00 L 140.50 311.00 L 141.00 310.50 L 142.00 310.50 L 143.00 310.50 L 144.00 310.50 L 145.00 310.50 L 146.00 310.50 L 147.00 310.50 L 148.00 310.50 L 149.00 310.50 L 149.50 310.00 L 149.50 309.00 L 149.50 308.00 L 149.50 307.00 L 149.50 306.00 L 149.50 305.00 L 149.50 304.00 L 150.00 303.50 L 150.50 303.00 L 151.00 302.50 L 152.00 302.50 L 153.00 302.50 L 154.00 302.50 L 155.00 302.50 L 156.00 302.50 L 157.00 302.50 L 158.00 302.50 L 159.00 302.50 L 160.00 302.50 L 161.00 302.50 L 162.00 302.50 L 163.00 302.50 L 164.00 302.50 L 165.00 302.50 L 166.00 302.50 L 167.00 302.50 L 168.00 302.50 L 169.00 302.50 L 169.50 303.00 L 169.50 304.00 L 169.50 305.00 L 169.50 306.00 L 169.50 307.00 L 169.50 308.00 L 169.50 309.00 L 169.50 310.00 L 169.50 311.00 L 169.50 312.00 L 169.50 313.00 L 169.50 314.00 L 169.50 315.00 L 169.50 316.00 L 169.50 317.00 L 169.50 318.00 L 169.50 319.00 L 169.50 320.00 L 169.50 321.00 L 169.50 322.00 L 169.50 323.00 L 169.50 324.00 L 169.50 325.00 L 169.50 326.00 L 169.50 327.00 L 169.50 328.00 L 169.50 329.00 L 169.50 330.00 L 169.50 331.00 L 170.00 331.50 L 171.00 331.50 L 172.00 331.50 L 173.00 331.50 L 174.00 331.50 L 175.00 331.50 L 176.00 331.50 L 177.00 331.50 L 178.00 331.50 L 178.50 332.00 L 178.50 333.00 L 178.50 334.00 L 178.50 335.00 L 178.50 336.00 L 178.50 337.00 L 178.50 338.00 L 178.50 339.00 L 178.50 340.00 L 178.50 341.00 L 178.50 342.00 L 178.50 343.00 L 178.50 344.00 L 178.50 345.00 L 178.50 346.00 L 178.50 347.00 L 178.50 348.00 L 178.50 349.00 L 178.50 350.00 L 178.50 351.00 L 178.50 352.00 L 178.50 353.00 L 178.50 354.00 L 179.00 354.50 L 179.50 355.00 L 180.00 355.50 L 181.00 355.50 L 182.00 355.50 L 183.00 355.50 L 184.00 355.50 L 185.00 355.50 L 186.00 355.50 L 187.00 355.50 L 188.00 355.50 L 189.00 355.50 L 190.00 355.50 L 191.00 355.50 L 192.00 355.50 L 193.00 355.50 L 194.00 355.50 L 194.50 355.00 L 194.50 354.00 L 194.50 353.00 L 194.50 352.00 L 194.50 351.00 L 194.50 350.00 L 194.50 349.00 L 194.50 348.00 L 194.50 347.00 L 194.50 346.00 L 194.50 345.00 L 194.50 344.00 L 194.50 343.00 L 195.00 342.50 L 196.00 342.50 L 197.00 342.50 L 198.00 342.50 L 199.00 342.50 L 200.00 342.50 L 201.00 342.50 L 202.00 342.50 L 203.00 342.50 L 204.00 342.50 L 205.00 342.50 L 206.00 342.50 L 207.00 342.50 L 208.00 342.50 L 209.00 342.50 L 210.00 342.50 L 211.00 342.50 L 212.00 342.50 L 213.00 342.50 L 214.00 342.50 L 215.00 342.50 L 216.00 342.50 L 217.00 342.50 L 218.00 342.50 L 218.50 342.00 L 218.50 341.00 L 218.50 340.00 L 218.50 339.00 L 218.50 338.00 L 218.50 337.00 L 218.50 336.00 L 218.50 335.00 L 218.50 334.00 L 218.50 333.00 L 218.50 332.00 L 218.50 331.00 L 218.50 330.00 L 218.50 329.00 L 218.50 328.00 L 218.50 327.00 L 218.50 326.00 L 218.50 325.00 L 218.50 324.00 L 218.50 323.00 L 218.50 322.00 L 218.50 321.00 L 218.50 320.00 L 218.50 319.00 L 218.50 318.00 L 218.50 317.00 L 218.50 316.00 L 218.50 315.00 L 218.50 314.00 L 218.50 313.00 L 218.50 312.00 L 218.50 311.00 L 218.50 310.00 L 218.50 309.00 L 218.50 308.00 L 218.50 307.00 L 218.50 306.00 L 218.50 305.00 L 218.50 304.00 L 218.50 303.00 L 218.50 302.00 L 218.50 301.00 L 218.50 300.00 L 218.50 299.00 L 218.50 298.00 L 218.50 297.00 L 218.50 296.00 L 218.50 295.00 L 218.50 294.00 L 218.50 293.00 L 218.50 292.00 L 218.50 291.00 L 218.50 290.00 L 218.50 289.00 L 218.50 288.00 L 218.50 287.00 L 218.50 286.00 L 218.50 285.00 L 218.50 284.00 L 218.50 283.00 L 218.50 282.00 L 218.50 281.00 L 218.50 280.00 L 218.50 279.00 L 218.50 278.00 L 218.50 277.00 L 219.00 276.50 L 220.00 276.50 L 221.00 276.50 L 222.00 276.50 L 223.00 276.50 L 224.00 276.50 L 225.00 276.50 L 226.00 276.50 L 227.00 276.50 L 228.00 276.50 L 229.00 276.50 L 230.00 276.50 L 231.00 276.50 L 231.50 276.00 L 231.50 275.00 L 231.50 274.00 L 231.50 273.00 L 231.50 272.00 L 231.50 271.00 L 231.50 270.00 L 231.50 269.00 L 231.50 268.00 L 231.50 267.00 L 231.50 266.00 L 231.50 265.00 L 231.50 264.00 L 231.50 263.00 L 231.50 262.00 L 231.50 261.00 L 231.50 260.00 L 231.50 259.00 L 231.50 258.00 L 231.50 257.00 L 231.50 256.00 L 231.50 255.00 L 231.50 254.00 L 231.50 253.00 L 231.50 252.00 L 231.50 251.00 L 232.00 250.50 L 232.50 250.00 L 233.00 249.50 L 234.00 249.50 L 235.00 249.50 L 236.00 249.50 L 237.00 249.50 L 238.00 249.50 L 239.00 249.50 L 240.00 249.50 L 241.00 249.50 L 242.00 249.50 L 243.00 249.50 L 244.00 249.50 L 245.00 249.50 L 246.00 249.50 L 247.00 249.50 L 248.00 249.50 L 249.00 249.50 L 250.00 249.50 L 251.00 249.50 L 252.00 249.50 L 253.00 249.50 L 253.50 250.00 L 253.50 251.00 L 253.50 252.00 L 253.50 253.00 L 253.50 254.00 L 253.50 255.00 L 253.50 256.00 L 253.50 257.00 L 253.50 258.00 L 253.50 259.00 L 253.50 260.00 L 253.50 261.00 L 253.50 262.00 L 253.50 263.00 L 253.50 264.00 L 253.50 265.00 L 253.50 266.00 L 253.50 267.00 L 253.50 268.00 L 253.50 269.00 L 253.50 270.00 L 253.50 271.00 L 253.50 272.00 L 253.50 273.00 L 253.50 274.00 L 253.50 275.00 L 253.50 276.00 L 253.50 277.00 L 253.50 278.00 L 253.50 279.00 L 253.50 280.00 L 253.50 281.00 L 253.50 282.00 L 253.50 283.00 L 253.50 284.00 L 253.50 285.00 L 253.50 286.00 L 253.50 287.00 L 253.50 288.00 L 253.50 289.00 L 253.50 290.00 L 253.50 291.00 L 253.50 292.00 L 253.50 293.00 L 253.50 294.00 L 253.50 295.00 L 253.50 296.00 L 253.50 297.00 L 253.50 298.00 L 253.50 299.00 L 253.50 300.00 L 253.50 301.00 L 253.50 302.00 L 253.50 303.00 L 253.50 304.00 L 253.50 305.00 L 253.50 306.00 L 253.50 307.00 L 253.50 308.00 L 253.50 309.00 L 253.50 310.00 L 254.00 310.50 L 255.00 310.50 L 256.00 310.50 L 256.50 310.00 L 256.50 309.00 L 256.50 308.00 L 256.50 307.00 L 256.50 306.00 L 256.50 305.00 L 256.50 304.00 L 257.00 303.50 L 258.00 303.50 L 259.00 303.50 L 260.00 303.50 L 261.00 303.50 L 262.00 303.50 L 263.00 303.50 L 264.00 303.50 L 265.00 303.50 L 265.50 303.00 L 265.50 302.00 L 265.50 301.00 L 265.50 300.00 L 265.50 299.00 L 266.00 298.50 L 267.00 298.50 L 268.00 298.50 L 268.50 299.00 L 268.50 300.00 L 268.50 301.00 L 268.50 302.00 L 268.50 303.00 L 269.00 303.50 L 270.00 303.50 L 271.00 303.50 L 272.00 303.50 L 273.00 303.50 L 274.00 303.50 L 275.00 303.50 L 276.00 303.50 L 277.00 303.50 L 277.50 304.00 L 277.50 305.00 L 277.50 306.00 L 277.50 307.00 L 277.50 308.00 L 277.50 309.00 L 277.50 310.00 L 277.50 311.00 L 278.00 311.50 L 279.00 311.50 L 280.00 311.50 L 281.00 311.50 L 281.50 312.00 L 281.50 313.00 L 281.50 314.00 L 281.50 315.00 L 281.50 316.00 L 281.50 317.00 L 281.50 318.00 L 281.50 319.00 L 281.50 320.00 L 281.50 321.00 L 281.50 322.00 L 281.50 323.00 L 281.50 324.00 L 281.50 325.00 L 281.50 326.00 L 281.50 327.00 L 281.50 328.00 L 281.50 329.00 L 281.50 330.00 L 281.50 331.00 L 281.50 332.00 L 282.00 332.50 L 282.50 333.00 L 283.00 333.50 L 284.00 333.50 L 285.00 333.50 L 285.50 333.00 L 285.50 332.00 L 285.50 331.00 L 285.50 330.00 L 285.50 329.00 L 285.50 328.00 L 285.50 327.00 L 285.50 326.00 L 285.50 325.00 L 285.50 324.00 L 285.50 323.00 L 285.50 322.00 L 285.50 321.00 L 285.50 320.00 L 285.50 319.00 L 285.50 318.00 L 285.50 317.00 L 285.50 316.00 L 285.50 315.00 L 285.50 314.00 L 285.50 313.00 L 285.50 312.00 L 285.50 311.00 L 285.50 310.00 L 285.50 309.00 L 285.50 308.00 L 285.50 307.00 L 285.50 306.00 L 285.50 305.00 L 285.50 304.00 L 285.50 303.00 L 285.50 302.00 L 285.50 301.00 L 285.50 300.00 L 285.50 299.00 L 285.50 298.00 L 285.50 297.00 L 285.50 296.00 L 285.50 295.00 L 285.50 294.00 L 285.50 293.00 L 285.50 292.00 L 285.50 291.00 L 286.00 290.50 L 287.00 290.50 L 288.00 290.50 L 289.00 290.50 L 290.00 290.50 L 291.00 290.50 L 292.00 290.50 L 293.00 290.50 L 294.00 290.50 L 295.00 290.50 L 296.00 290.50 L 297.00 290.50 L 298.00 290.50 L 299.00 290.50 L 300.00 290.50 L 301.00 290.50 L 302.00 290.50 L 303.00 290.50 L 304.00 290.50 L 305.00 290.50 L 306.00 290.50 L 307.00 290.50 L 308.00 290.50 L 309.00 290.50 L 310.00 290.50 L 310.50 291.00 L 310.50 292.00 L 310.50 293.00 L 310.50 294.00 L 310.50 295.00 L 310.50 296.00 L 310.50 297.00 L 310.50 298.00 L 310.50 299.00 L 310.50 300.00 L 310.50 301.00 L 310.50 302.00 L 310.50 303.00 L 310.50 304.00 L 310.50 305.00 L 310.50 306.00 L 310.50 307.00 L 310.50 308.00 L 310.50 309.00 L 310.50 310.00 L 310.50 311.00 L 310.50 312.00 L 310.50 313.00 L 310.50 314.00 L 310.50 315.00 L 310.50 316.00 L 310.50 317.00 L 310.50 318.00 L 310.50 319.00 L 310.50 320.00 L 310.50 321.00 L 310.50 322.00 L 310.50 323.00 L 310.50 324.00 L 310.50 325.00 L 310.50 326.00 L 310.50 327.00 L 310.50 328.00 L 310.50 329.00 L 310.50 330.00 L 310.50 331.00 L 310.50 332.00 L 310.50 333.00 L 311.00 333.50 L 312.00 333.50 L 313.00 333.50 L 314.00 333.50 L 315.00 333.50 L 315.50 333.00 L 315.50 332.00 L 315.50 331.00 L 315.50 330.00 L 315.50 329.00 L 315.50 328.00 L 315.50 327.00 L 315.50 326.00 L 315.50 325.00 L 315.50 324.00 L 315.50 323.00 L 315.50 322.00 L 315.50 321.00 L 315.50 320.00 L 315.50 319.00 L 315.50 318.00 L 315.50 317.00 L 315.50 316.00 L 315.50 315.00 L 315.50 314.00 L 315.50 313.00 L 315.50 312.00 L 315.50 311.00 L 315.50 310.00 L 315.50 309.00 L 315.50 308.00 L 316.00 307.50 L 317.00 307.50 L 318.00 307.50 L 319.00 307.50 L 320.00 307.50 L 320.50 307.00 L 320.50 306.00 L 320.50 305.00 L 320.50 304.00 L 320.50 303.00 L 320.50 302.00 L 320.50 301.00 L 320.50 300.00 L 320.50 299.00 L 320.50 298.00 L 320.50 297.00 L 320.50 296.00 L 320.50 295.00 L 320.50 294.00 L 320.50 293.00 L 320.50 292.00 L 320.50 291.00 L 321.00 290.50 L 322.00 290.50 L 323.00 290.50 L 324.00 290.50 L 325.00 290.50 L 326.00 290.50 L 327.00 290.50 L 328.00 290.50 L 329.00 290.50 L 330.00 290.50 L 331.00 290.50 L 332.00 290.50 L 333.00 290.50 L 334.00 290.50 L 335.00 290.50 L 336.00 290.50 L 337.00 290.50 L 338.00 290.50 L 339.00 290.50 L 340.00 290.50 L 341.00 290.50 L 342.00 290.50 L 343.00 290.50 L 344.00 290.50 L 345.00 290.50 L 346.00 290.50 L 347.00 290.50 L 348.00 290.50 L 349.00 290.50 L 350.00 290.50 L 351.00 290.50 L 352.00 290.50 L 353.00 290.50 L 354.00 290.50 L 355.00 290.50 L 356.00 290.50 L 357.00 290.50 L 358.00 290.50 L 359.00 290.50 L 360.00 290.50 L 361.00 290.50 L 362.00 290.50 L 362.50 291.00 L 362.50 292.00 L 362.50 293.00 L 362.50 294.00 L 362.50 295.00 L 362.50 296.00 L 362.50 297.00 L 362.50 298.00 L 362.50 299.00 L 362.50 300.00 L 362.50 301.00 L 362.50 302.00 L 362.50 303.00 L 362.50 304.00 L 362.50 305.00 L 362.50 306.00 L 362.50 307.00 L 362.50 308.00 L 362.50 309.00 L 362.50 310.00 L 362.50 311.00 L 362.50 312.00 L 362.50 313.00 L 363.00 313.50 L 364.00 313.50 L 365.00 313.50 L 366.00 313.50 L 367.00 313.50 L 368.00 313.50 L 369.00 313.50 L 369.50 314.00 L 369.50 315.00 L 369.50 316.00 L 369.50 317.00 L 369.50 318.00 L 369.50 319.00 L 369.50 320.00 L 369.50 321.00 L 369.50 322.00 L 370.00 322.50 L 371.00 322.50 L 372.00 322.50 L 373.00 322.50 L 374.00 322.50 L 375.00 322.50 L 375.50 322.00 L 375.50 321.00 L 375.50 320.00 L 375.50 319.00 L 375.50 318.00 L 375.50 317.00 L 375.50 316.00 L 375.50 315.00 L 375.50 314.00 L 375.50 313.00 L 375.50 312.00 L 375.50 311.00 L 375.50 310.00 L 375.50 309.00 L 375.50 308.00 L 375.50 307.00 L 375.50 306.00 L 375.50 305.00 L 375.50 304.00 L 375.50 303.00 L 375.50 302.00 L 375.50 301.00 L 375.50 300.00 L 375.50 299.00 L 375.50 298.00 L 375.50 297.00 L 375.50 296.00 L 375.50 295.00 L 375.50 294.00 L 375.50 293.00 L 376.00 292.50 L 377.00 292.50 L 378.00 292.50 L 379.00 292.50 L 380.00 292.50 L 381.00 292.50 L 382.00 292.50 L 383.00 292.50 L 384.00 292.50 L 385.00 292.50 L 386.00 292.50 L 387.00 292.50 L 388.00 292.50 L 389.00 292.50 L 390.00 292.50 L 391.00 292.50 L 392.00 292.50 L 393.00 292.50 L 394.00 292.50 L 395.00 292.50 L 396.00 292.50 L 397.00 292.50 L 398.00 292.50 L 399.00 292.50 L 400.00 292.50 L 401.00 292.50 L 402.00 292.50 L 402.50 293.00 L 402.50 294.00 L 402.50 295.00 L 402.50 296.00 L 402.50 297.00 L 402.50 298.00 L 402.50 299.00 L 402.50 300.00 L 402.50 301.00 L 402.50 302.00 L 402.50 303.00 L 402.50 304.00 L 402.50 305.00 L 402.50 306.00 L 402.50 307.00 L 402.50 308.00 L 403.00 308.50 L 404.00 308.50 L 405.00 308.50 L 406.00 308.50 L 407.00 308.50 L 408.00 308.50 L 409.00 308.50 L 410.00 308.50 L 411.00 308.50 L 412.00 308.50 L 413.00 308.50 L 414.00 308.50 L 415.00 308.50 L 416.00 308.50 L 417.00 308.50 L 418.00 308.50 L 418.50 309.00 L 418.50 310.00 L 418.50 311.00 L 418.50 312.00 L 418.50 313.00 L 418.50 314.00 L 418.50 315.00 L 418.50 316.00 L 418.50 317.00 L 418.50 318.00 L 418.50 319.00 L 418.50 320.00 L 418.50 321.00 L 418.50 322.00 L 418.50 323.00 L 418.50 324.00 L 418.50 325.00 L 418.50 326.00 L 418.50 327.00 L 418.50 328.00 L 418.50 329.00 L 418.50 330.00 L 418.50 331.00 L 418.50 332.00 L 418.50 333.00 L 418.50 334.00 L 418.50 335.00 L 419.00 335.50 L 420.00 335.50 L 421.00 335.50 L 422.00 335.50 L 422.50 335.00 L 422.50 334.00 L 422.50 333.00 L 422.50 332.00 L 422.50 331.00 L 422.50 330.00 L 422.50 329.00 L 422.50 328.00 L 422.50 327.00 L 422.50 326.00 L 422.50 325.00 L 422.50 324.00 L 422.50 323.00 L 422.50 322.00 L 422.50 321.00 L 422.50 320.00 L 422.50 319.00 L 422.50 318.00 L 422.50 317.00 L 422.50 316.00 L 422.50 315.00 L 422.50 314.00 L 422.50 313.00 L 422.50 312.00 L 422.50 311.00 L 422.50 310.00 L 422.50 309.00 L 422.50 308.00 L 422.50 307.00 L 422.50 306.00 L 422.50 305.00 L 422.50 304.00 L 422.50 303.00 L 422.50 302.00 L 422.50 301.00 L 422.50 300.00 L 422.50 299.00 L 422.50 298.00 L 422.50 297.00 L 422.50 296.00 L 422.50 295.00 L 422.50 294.00 L 422.50 293.00 L 422.50 292.00 L 422.50 291.00 L 422.50 290.00 L 422.50 289.00 L 422.50 288.00 L 422.50 287.00 L 422.50 286.00 L 422.50 285.00 L 422.50 284.00 L 422.50 283.00 L 422.50 282.00 L 422.50 281.00 L 422.50 280.00 L 422.50 279.00 L 422.50 278.00 L 422.50 277.00 L 422.50 276.00 L 422.50 275.00 L 422.50 274.00 L 422.50 273.00 L 422.50 272.00 L 422.50 271.00 L 422.50 270.00 L 422.50 269.00 L 422.50 268.00 L 422.50 267.00 L 422.50 266.00 L 422.50 265.00 L 422.50 264.00 L 422.50 263.00 L 422.50 262.00 L 422.50 261.00 L 422.50 260.00 L 422.50 259.00 L 422.50 258.00 L 422.50 257.00 L 422.50 256.00 L 422.50 255.00 L 422.50 254.00 L 422.50 253.00 L 422.50 252.00 L 422.50 251.00 L 422.50 250.00 L 422.50 249.00 L 422.50 248.00 L 422.50 247.00 L 422.50 246.00 L 422.50 245.00 L 422.50 244.00 L 422.50 243.00 L 422.50 242.00 L 422.50 241.00 L 422.50 240.00 L 422.50 239.00 L 422.50 238.00 L 422.50 237.00 L 422.50 236.00 L 422.50 235.00 L 422.50 234.00 L 422.50 233.00 L 422.50 232.00 L 422.50 231.00 L 422.50 230.00 L 422.50 229.00 L 422.50 228.00 L 422.50 227.00 L 422.50 226.00 L 422.50 225.00 L 422.50 224.00 L 422.50 223.00 L 422.50 222.00 L 422.50 221.00 L 423.00 220.50 L 424.00 220.50 L 425.00 220.50 L 426.00 220.50 L 427.00 220.50 L 428.00 220.50 L 429.00 220.50 L 430.00 220.50 L 431.00 220.50 L 432.00 220.50 L 433.00 220.50 L 434.00 220.50 L 435.00 220.50 L 436.00 220.50 L 437.00 220.50 L 438.00 220.50 L 439.00 220.50 L 440.00 220.50 L 441.00 220.50 L 442.00 220.50 L 443.00 220.50 L 444.00 220.50 L 445.00 220.50 L 446.00 220.50 L 446.50 221.00 L 446.50 222.00 L 446.50 223.00 L 446.50 224.00 L 446.50 225.00 L 446.50 226.00 L 446.50 227.00 L 446.50 228.00 L 446.50 229.00 L 446.50 230.00 L 446.50 231.00 L 446.50 232.00 L 446.50 233.00 L 446.50 234.00 L 446.50 235.00 L 446.50 236.00 L 446.50 237.00 L 446.50 238.00 L 446.50 239.00 L 446.50 240.00 L 446.50 241.00 L 446.50 242.00 L 446.50 243.00 L 446.50 244.00 L 446.50 245.00 L 446.50 246.00 L 446.50 247.00 L 446.50 248.00 L 446.50 249.00 L 446.50 250.00 L 446.50 251.00 L 446.50 252.00 L 446.50 253.00 L 446.50 254.00 L 446.50 255.00 L 446.50 256.00 L 446.50 257.00 L 446.50 258.00 L 446.50 259.00 L 446.50 260.00 L 446.50 261.00 L 446.50 262.00 L 446.50 263.00 L 446.50 264.00 L 446.50 265.00 L 446.50 266.00 L 446.50 267.00 L 446.50 268.00 L 446.50 269.00 L 446.50 270.00 L 446.50 271.00 L 446.50 272.00 L 446.50 273.00 L 446.50 274.00 L 446.50 275.00 L 446.50 276.00 L 446.50 277.00 L 446.50 278.00 L 446.50 279.00 L 446.50 280.00 L 446.50 281.00 L 446.50 282.00 L 446.50 283.00 L 446.50 284.00 L 446.50 285.00 L 446.50 286.00 L 446.50 287.00 L 446.50 288.00 L 446.50 289.00 L 446.50 290.00 L 446.50 291.00 L 446.50 292.00 L 446.50 293.00 L 446.50 294.00 L 446.50 295.00 L 447.00 295.50 L 448.00 295.50 L 449.00 295.50 L 450.00 295.50 L 451.00 295.50 L 452.00 295.50 L 453.00 295.50 L 453.50 296.00 L 453.50 297.00 L 453.50 298.00 L 453.50 299.00 L 453.50 300.00 L 453.50 301.00 L 453.50 302.00 L 453.50 303.00 L 453.50 304.00 L 453.50 305.00 L 453.50 306.00 L 453.50 307.00 L 453.50 308.00 L 453.50 309.00 L 453.50 310.00 L 453.50 311.00 L 453.50 312.00 L 453.50 313.00 L 453.50 314.00 L 453.50 315.00 L 453.50 316.00 L 453.50 317.00 L 453.50 318.00 L 453.50 319.00 L 453.50 320.00 L 453.50 321.00 L 453.50 322.00 L 453.50 323.00 L 453.50 324.00 L 453.50 325.00 L 453.50 326.00 L 453.50 327.00 L 453.50 328.00 L 453.50 329.00 L 453.50 330.00 L 453.50 331.00 L 454.00 331.50 L 455.00 331.50 L 456.00 331.50 L 457.00 331.50 L 458.00 331.50 L 458.50 331.00 L 459.00 330.50 L 459.50 330.00 L 459.50 329.00 L 459.50 328.00 L 459.50 327.00 L 459.50 326.00 L 459.50 325.00 L 459.50 324.00 L 459.50 323.00 L 459.50 322.00 L 459.50 321.00 L 459.50 320.00 L 459.50 319.00 L 459.50 318.00 L 459.50 317.00 L 459.50 316.00 L 459.50 315.00 L 459.50 314.00 L 459.50 313.00 L 459.50 312.00 L 459.50 311.00 L 459.50 310.00 L 459.50 309.00 L 459.50 308.00 L 459.50 307.00 L 459.50 306.00 L 459.50 305.00 L 459.50 304.00 L 460.00 303.50 L 461.00 303.50 L 462.00 303.50 L 463.00 303.50 L 464.00 303.50 L 465.00 303.50 L 466.00 303.50 L 466.50 303.00 L 467.00 302.50 L 467.50 302.00 L 467.50 301.00 L 467.50 300.00 L 467.50 299.00 L 467.50 298.00 L 467.50 297.00 L 467.50 296.00 L 467.50 295.00 L 467.50 294.00 L 467.50 293.00 L 467.50 292.00 L 467.50 291.00 L 467.50 290.00 L 467.50 289.00 L 467.50 288.00 L 467.50 287.00 L 467.50 286.00 L 467.50 285.00 L 467.50 284.00 L 467.50 283.00 L 467.50 282.00 L 467.50 281.00 L 467.50 280.00 L 467.50 279.00 L 467.50 278.00 L 467.50 277.00 L 467.50 276.00 L 467.50 275.00 L 467.50 274.00 L 467.50 273.00 L 467.50 272.00 L 467.50 271.00 L 467.50 270.00 L 467.50 269.00 L 467.50 268.00 L 467.50 267.00 L 467.50 266.00 L 467.50 265.00 L 467.50 264.00 L 467.50 263.00 L 467.50 262.00 L 467.50 261.00 L 467.50 260.00 L 467.50 259.00 L 467.50 258.00 L 467.50 257.00 L 467.50 256.00 L 467.50 255.00 L 467.50 254.00 L 467.50 253.00 L 467.50 252.00 L 467.50 251.00 L 467.50 250.00 L 467.50 249.00 L 467.50 248.00 L 467.50 247.00 L 467.50 246.00 L 467.50 245.00 L 467.50 244.00 L 467.50 243.00 L 467.50 242.00 L 467.50 241.00 L 467.50 240.00 L 467.50 239.00 L 467.50 238.00 L 467.50 237.00 L 467.50 236.00 L 467.50 235.00 L 467.50 234.00 L 467.50 233.00 L 468.00 232.50 L 469.00 232.50 L 470.00 232.50 L 471.00 232.50 L 472.00 232.50 L 473.00 232.50 L 474.00 232.50 L 475.00 232.50 L 476.00 232.50 L 476.50 232.00 L 476.50 231.00 L 476.50 230.00 L 476.50 229.00 L 476.50 228.00 L 476.50 227.00 L 476.50 226.00 L 476.50 225.00 L 476.50 224.00 L 476.50 223.00 L 476.50 222.00 L 476.50 221.00 L 476.50 220.00 L 476.50 219.00 L 476.50 218.00 L 476.50 217.00 L 476.50 216.00 L 476.50 215.00 L 476.50 214.00 L 476.50 213.00 L 476.50 212.00 L 476.50 211.00 L 477.00 210.50 L 478.00 210.50 L 479.00 210.50 L 480.00 210.50 L 481.00 210.50 L 482.00 210.50 L 483.00 210.50 L 484.00 210.50 L 485.00 210.50 L 486.00 210.50 L 487.00 210.50 L 488.00 210.50 L 489.00 210.50 L 490.00 210.50 L 491.00 210.50 L 492.00 210.50 L 493.00 210.50 L 494.00 210.50 L 495.00 210.50 L 496.00 210.50 L 497.00 210.50 L 498.00 210.50 L 499.00 210.50 L 500.00 210.50 L 501.00 210.50 L 502.00 210.50 L 503.00 210.50 L 504.00 210.50 L 505.00 210.50 L 506.00 210.50 L 507.00 210.50 L 508.00 210.50 L 509.00 210.50 L 510.00 210.50 L 511.00 210.50 L 512.00 210.50 L 513.00 210.50 L 514.00 210.50 L 515.00 210.50 L 516.00 210.50 L 517.00 210.50 L 518.00 210.50 L 519.00 210.50 L 520.00 210.50 L 521.00 210.50 L 522.00 210.50 L 523.00 210.50 L 524.00 210.50 L 525.00 210.50 L 526.00 210.50 L 527.00 210.50 L 528.00 210.50 L 529.00 210.50 L 530.00 210.50 L 531.00 210.50 L 532.00 210.50 L 533.00 210.50 L 534.00 210.50 L 535.00 210.50 L 536.00 210.50 L 537.00 210.50 L 537.50 211.00 L 537.50 212.00 L 537.50 213.00 L 537.50 214.00 L 537.50 215.00 L 537.50 216.00 L 537.50 217.00 L 537.50 218.00 L 537.50 219.00 L 537.50 220.00 L 537.50 221.00 L 537.50 222.00 L 537.50 223.00 L 537.50 224.00 L 537.50 225.00 L 537.50 226.00 L 537.50 227.00 L 537.50 228.00 L 537.50 229.00 L 537.50 230.00 L 537.50 231.00 L 537.50 232.00 L 537.50 233.00 L 537.50 234.00 L 537.50 235.00 L 538.00 235.50 L 539.00 235.50 L 540.00 235.50 L 541.00 235.50 L 542.00 235.50 L 543.00 235.50 L 544.00 235.50 L 545.00 235.50 L 546.00 235.50 L 547.00 235.50 L 548.00 235.50 L 549.00 235.50 L 550.00 235.50 L 551.00 235.50 L 552.00 235.50 L 553.00 235.50 L 554.00 235.50 L 555.00 235.50 L 556.00 235.50 L 557.00 235.50 L 558.00 235.50 L 559.00 235.50 L 560.00 235.50 L 561.00 235.50 L 562.00 235.50 L 563.00 235.50 L 564.00 235.50 L 565.00 235.50 L 566.00 235.50 L 567.00 235.50 L 568.00 235.50 L 569.00 235.50 L 570.00 235.50 L 571.00 235.50 L 572.00 235.50 L 573.00 235.50 L 573.50 236.00 L 573.50 237.00 L 573.50 238.00 L 573.50 239.00 L 573.50 240.00 L 573.50 241.00 L 573.50 242.00 L 573.50 243.00 L 573.50 244.00 L 573.50 245.00 L 573.50 246.00 L 573.50 247.00 L 573.50 248.00 L 573.50 249.00 L 573.50 250.00 L 573.50 251.00 L 573.50 252.00 L 573.50 253.00 L 573.50 254.00 L 573.50 255.00 L 573.50 256.00 L 573.50 257.00 L 573.50 258.00 L 573.50 259.00 L 573.50 260.00 L 573.50 261.00 L 573.50 262.00 L 573.50 263.00 L 573.50 264.00 L 573.50 265.00 L 573.50 266.00 L 573.50 267.00 L 573.50 268.00 L 573.50 269.00 L 573.50 270.00 L 573.50 271.00 L 573.50 272.00 L 573.50 273.00 L 574.00 273.50 L 574.50 274.00 L 575.00 274.50 L 576.00 274.50 L 577.00 274.50 L 578.00 274.50 L 579.00 274.50 L 580.00 274.50 L 581.00 274.50 L 581.50 274.00 L 582.00 273.50 L 582.50 273.00 L 582.50 272.00 L 582.50 271.00 L 582.50 270.00 L 582.50 269.00 L 582.50 268.00 L 582.50 267.00 L 582.50 266.00 L 582.50 265.00 L 582.50 264.00 L 582.50 263.00 L 582.50 262.00 L 582.50 261.00 L 582.50 260.00 L 582.50 259.00 L 582.50 258.00 L 582.50 257.00 L 582.50 256.00 L 582.50 255.00 L 582.50 254.00 L 582.50 253.00 L 582.50 252.00 L 582.50 251.00 L 582.50 250.00 L 582.50 249.00 L 582.50 248.00 L 582.50 247.00 L 582.50 246.00 L 582.50 245.00 L 582.50 244.00 L 582.50 243.00 L 582.50 242.00 L 582.50 241.00 L 582.50 240.00 L 582.50 239.00 L 582.50 238.00 L 582.50 237.00 L 582.50 236.00 L 582.50 235.00 L 582.50 234.00 L 582.50 233.00 L 582.50 232.00 L 582.50 231.00 L 582.50 230.00 L 582.50 229.00 L 582.50 228.00 L 582.50 227.00 L 582.50 226.00 L 582.50 225.00 L 582.50 224.00 L 582.50 223.00 L 582.50 222.00 L 582.50 221.00 L 582.50 220.00 L 582.50 219.00 L 582.50 218.00 L 582.50 217.00 L 582.50 216.00 L 582.50 215.00 L 582.50 214.00 L 582.50 213.00 L 582.50 212.00 L 582.50 211.00 L 582.50 210.00 L 582.50 209.00 L 582.50 208.00 L 582.50 207.00 L 582.50 206.00 L 582.50 205.00 L 582.50 204.00 L 582.50 203.00 L 582.50 202.00 L 582.50 201.00 L 582.50 200.00 L 582.50 199.00 L 582.50 198.00 L 582.50 197.00 L 582.50 196.00 L 582.50 195.00 L 582.50 194.00 L 582.50 193.00 L 582.50 192.00 L 582.50 191.00 L 582.50 190.00 L 582.50 189.00 L 582.50 188.00 L 582.50 187.00 L 582.50 186.00 L 582.50 185.00 L 582.50 184.00 L 582.50 183.00 L 582.50 182.00 L 582.50 181.00 L 582.50 180.00 L 582.50 179.00 L 582.50 178.00 L 582.50 177.00 L 582.50 176.00 L 582.50 175.00 L 582.50 174.00 L 582.50 173.00 L 582.50 172.00 L 582.50 171.00 L 582.50 170.00 L 582.50 169.00 L 582.50 168.00 L 582.50 167.00 L 582.50 166.00 L 582.50 165.00 L 582.50 164.00 L 582.50 163.00 L 582.50 162.00 L 582.50 161.00 L 582.50 160.00 L 582.50 159.00 L 582.50 158.00 L 582.50 157.00 L 582.50 156.00 L 582.50 155.00 L 582.50 154.00 L 582.50 153.00 L 582.50 152.00 L 582.50 151.00 L 582.50 150.00 L 582.50 149.00 L 582.50 148.00 L 582.50 147.00 L 582.50 146.00 L 582.50 145.00 L 582.50 144.00 L 582.50 143.00 L 582.50 142.00 L 582.50 141.00 L 582.50 140.00 L 582.50 139.00 L 582.50 138.00 L 582.50 137.00 L 582.50 136.00 L 582.50 135.00 L 582.50 134.00 L 582.50 133.00 L 582.50 132.00 L 582.50 131.00 L 582.50 130.00 L 582.50 129.00 L 582.50 128.00 L 582.50 127.00 L 582.50 126.00 L 582.50 125.00 L 582.50 124.00 L 582.50 123.00 L 582.50 122.00 L 582.50 121.00 L 582.50 120.00 L 582.50 119.00 L 582.50 118.00 L 583.00 117.50 L 584.00 117.50 L 585.00 117.50 L 586.00 117.50 L 587.00 117.50 L 588.00 117.50 L 589.00 117.50 L 590.00 117.50 L 590.50 117.00 L 591.00 116.50 L 591.50 116.00 L 591.50 115.00 L 591.50 114.00 L 591.50 113.00 L 591.50 112.00 L 591.50 111.00 L 591.50 110.00 L 591.50 109.00 L 591.50 108.00 L 591.50 107.00 L 592.00 106.50 L 593.00 106.50 L 594.00 106.50 L 595.00 106.50 L 596.00 106.50 L 597.00 106.50 L 598.00 106.50 L 598.50 106.00 L 598.50 105.00 L 599.00 104.50 L 599.50 104.00 L 599.50 103.00 L 600.00 102.50 L 600.50 102.00 L 600.50 101.00 L 601.00 100.50 L 601.50 100.00 L 601.50 99.00 L 602.00 98.50 L 602.50 98.00 L 602.50 97.00 L 602.50 96.00 L 603.00 95.50 L 603.50 95.00 L 603.50 94.00 L 604.00 93.50 L 604.50 93.00 L 604.50 92.00 L 604.50 91.00 L 604.50 90.00 L 604.50 89.00 L 604.50 88.00 L 604.50 87.00 L 604.50 86.00 L 604.50 85.00 L 604.50 84.00 L 604.50 83.00 L 604.50 82.00 L 604.50 81.00 L 604.50 80.00 L 604.50 79.00 L 604.50 78.00 L 604.50 77.00 L 604.50 76.00 L 604.50 75.00 L 604.50 74.00 L 604.50 73.00 L 604.50 72.00 L 604.50 71.00 L 604.50 70.00 L 604.50 69.00 L 604.50 68.00 L 604.50 67.00 L 604.50 66.00 L 604.50 65.00 L 604.50 64.00 L 604.50 63.00 L 604.50 62.00 L 604.50 61.00 L 604.50 60.00 L 604.50 59.00 L 605.00 58.50 L 605.50 58.00 L 606.00 57.50 L 606.50 58.00 L 607.00 58.50 L 607.50 59.00 L 607.50 60.00 L 607.50 61.00 L 607.50 62.00 L 607.50 63.00 L 607.50 64.00 L 607.50 65.00 L 607.50 66.00 L 607.50 67.00 L 607.50 68.00 L 607.50 69.00 L 607.50 70.00 L 607.50 71.00 L 607.50 72.00 L 607.50 73.00 L 607.50 74.00 L 607.50 75.00 L 607.50 76.00 L 607.50 77.00 L 607.50 78.00 L 607.50 79.00 L 607.50 80.00 L 607.50 81.00 L 607.50 82.00 L 607.50 83.00 L 607.50 84.00 L 607.50 85.00 L 607.50 86.00 L 607.50 87.00 L 607.50 88.00 L 607.50 89.00 L 607.50 90.00 L 607.50 91.00 L 607.50 92.00 L 607.50 93.00 L 607.50 94.00 L 608.00 94.50 L 608.50 95.00 L 608.50 96.00 L 609.00 96.50 L 609.50 97.00 L 609.50 98.00 L 609.50 99.00 L 610.00 99.50 L 610.50 100.00 L 610.50 101.00 L 611.00 101.50 L 611.50 102.00 L 611.50 103.00 L 611.50 104.00 L 612.00 104.50 L 612.50 105.00 L 613.00 105.50 L 614.00 105.50 L 615.00 105.50 L 616.00 105.50 L 617.00 105.50 L 618.00 105.50 L 619.00 105.50 L 620.00 105.50 L 620.50 106.00 L 621.00 106.50 L 621.50 107.00 L 621.50 108.00 L 621.50 109.00 L 621.50 110.00 L 621.50 111.00 L 621.50 112.00 L 621.50 113.00 L 621.50 114.00 L 621.50 115.00 L 621.50 116.00 L 622.00 116.50 L 623.00 116.50 L 624.00 116.50 L 625.00 116.50 L 626.00 116.50 L 627.00 116.50 L 628.00 116.50 L 628.50 117.00 L 628.50 118.00 L 628.50 119.00 L 628.50 120.00 L 628.50 121.00 L 628.50 122.00 L 628.50 123.00 L 628.50 124.00 L 628.50 125.00 L 628.50 126.00 L 628.50 127.00 L 628.50 128.00 L 628.50 129.00 L 628.50 130.00 L 628.50 131.00 L 628.50 132.00 L 628.50 133.00 L 628.50 134.00 L 628.50 135.00 L 628.50 136.00 L 628.50 137.00 L 628.50 138.00 L 628.50 139.00 L 628.50 140.00 L 628.50 141.00 L 628.50 142.00 L 628.50 143.00 L 628.50 144.00 L 628.50 145.00 L 628.50 146.00 L 628.50 147.00 L 628.50 148.00 L 628.50 149.00 L 628.50 150.00 L 628.50 151.00 L 628.50 152.00 L 628.50 153.00 L 628.50 154.00 L 628.50 155.00 L 628.50 156.00 L 628.50 157.00 L 628.50 158.00 L 628.50 159.00 L 628.50 160.00 L 628.50 161.00 L 628.50 162.00 L 628.50 163.00 L 628.50 164.00 L 628.50 165.00 L 628.50 166.00 L 628.50 167.00 L 628.50 168.00 L 628.50 169.00 L 628.50 170.00 L 628.50 171.00 L 628.50 172.00 L 628.50 173.00 L 628.50 174.00 L 628.50 175.00 L 628.50 176.00 L 628.50 177.00 L 628.50 178.00 L 628.50 179.00 L 628.50 180.00 L 628.50 181.00 L 628.50 182.00 L 628.50 183.00 L 628.50 184.00 L 628.50 185.00 L 628.50 186.00 L 628.50 187.00 L 628.50 188.00 L 628.50 189.00 L 628.50 190.00 L 628.50 191.00 L 628.50 192.00 L 628.50 193.00 L 628.50 194.00 L 628.50 195.00 L 628.50 196.00 L 628.50 197.00 L 628.50 198.00 L 628.50 199.00 L 628.50 200.00 L 628.50 201.00 L 628.50 202.00 L 628.50 203.00 L 628.50 204.00 L 628.50 205.00 L 628.50 206.00 L 628.50 207.00 L 628.50 208.00 L 628.50 209.00 L 628.50 210.00 L 628.50 211.00 L 628.50 212.00 L 628.50 213.00 L 628.50 214.00 L 628.50 215.00 L 628.50 216.00 L 628.50 217.00 L 628.50 218.00 L 628.50 219.00 L 628.50 220.00 L 628.50 221.00 L 628.50 222.00 L 628.50 223.00 L 628.50 224.00 L 628.50 225.00 L 628.50 226.00 L 628.50 227.00 L 628.50 228.00 L 628.50 229.00 L 628.50 230.00 L 628.50 231.00 L 628.50 232.00 L 628.50 233.00 L 628.50 234.00 L 628.50 235.00 L 628.50 236.00 L 628.50 237.00 L 628.50 238.00 L 628.50 239.00 L 628.50 240.00 L 628.50 241.00 L 628.50 242.00 L 628.50 243.00 L 628.50 244.00 L 628.50 245.00 L 628.50 246.00 L 628.50 247.00 L 628.50 248.00 L 628.50 249.00 L 628.50 250.00 L 628.50 251.00 L 628.50 252.00 L 628.50 253.00 L 628.50 254.00 L 628.50 255.00 L 628.50 256.00 L 628.50 257.00 L 628.50 258.00 L 628.50 259.00 L 628.50 260.00 L 628.50 261.00 L 628.50 262.00 L 628.50 263.00 L 628.50 264.00 L 628.50 265.00 L 628.50 266.00 L 628.50 267.00 L 628.50 268.00 L 628.50 269.00 L 628.50 270.00 L 628.50 271.00 L 628.50 272.00 L 628.50 273.00 L 628.50 274.00 L 628.50 275.00 L 628.50 276.00 L 628.50 277.00 L 628.50 278.00 L 628.50 279.00 L 628.50 280.00 L 628.50 281.00 L 628.50 282.00 L 628.50 283.00 L 628.50 284.00 L 628.50 285.00 L 628.50 286.00 L 628.50 287.00 L 628.50 288.00 L 628.50 289.00 L 628.50 290.00 L 628.50 291.00 L 628.50 292.00 L 628.50 293.00 L 628.50 294.00 L 628.50 295.00 L 628.50 296.00 L 628.50 297.00 L 628.50 298.00 L 628.50 299.00 L 628.50 300.00 L 628.50 301.00 L 628.50 302.00 L 629.00 302.50 L 629.50 303.00 L 630.00 303.50 L 631.00 303.50 L 632.00 303.50 L 633.00 303.50 L 634.00 303.50 L 635.00 303.50 L 635.50 303.00 L 635.50 302.00 L 636.00 301.50 L 636.50 301.00 L 636.50 300.00 L 636.50 299.00 L 636.50 298.00 L 636.50 297.00 L 636.50 296.00 L 636.50 295.00 L 636.50 294.00 L 636.50 293.00 L 636.50 292.00 L 636.50 291.00 L 636.50 290.00 L 636.50 289.00 L 636.50 288.00 L 636.50 287.00 L 636.50 286.00 L 636.50 285.00 L 636.50 284.00 L 636.50 283.00 L 636.50 282.00 L 636.50 281.00 L 636.50 280.00 L 636.00 279.50 L 635.50 279.00 L 635.50 278.00 L 636.00 277.50 L 636.50 277.00 L 636.50 276.00 L 637.00 275.50 L 638.00 275.50 L 639.00 275.50 L 640.00 275.50 L 641.00 275.50 L 642.00 275.50 L 643.00 275.50 L 644.00 275.50 L 645.00 275.50 L 646.00 275.50 L 647.00 275.50 L 648.00 275.50 L 649.00 275.50 L 650.00 275.50 L 651.00 275.50 L 652.00 275.50 L 653.00 275.50 L 654.00 275.50 L 655.00 275.50 L 656.00 275.50 L 656.50 276.00 L 657.00 276.50 L 657.50 277.00 L 657.50 278.00 L 657.50 279.00 L 657.50 280.00 L 657.50 281.00 L 657.50 282.00 L 657.50 283.00 L 657.50 284.00 L 657.50 285.00 L 657.50 286.00 L 657.50 287.00 L 657.50 288.00 L 657.50 289.00 L 657.50 290.00 L 657.50 291.00 L 657.50 292.00 L 657.50 293.00 L 657.50 294.00 L 657.50 295.00 L 657.50 296.00 L 657.50 297.00 L 657.50 298.00 L 657.50 299.00 L 657.50 300.00 L 657.50 301.00 L 657.50 302.00 L 657.50 303.00 L 657.50 304.00 L 657.50 305.00 L 657.50 306.00 L 657.50 307.00 L 657.50 308.00 L 657.50 309.00 L 657.50 310.00 L 657.50 311.00 L 657.50 312.00 L 657.50 313.00 L 657.50 314.00 L 657.50 315.00 L 658.00 315.50 L 659.00 315.50 L 660.00 315.50 L 661.00 315.50 L 662.00 315.50 L 663.00 315.50 L 664.00 315.50 L 664.50 315.00 L 664.50 314.00 L 664.50 313.00 L 664.50 312.00 L 664.50 311.00 L 664.50 310.00 L 664.50 309.00 L 664.50 308.00 L 664.50 307.00 L 664.50 306.00 L 664.50 305.00 L 664.50 304.00 L 664.50 303.00 L 664.50 302.00 L 664.50 301.00 L 664.50 300.00 L 664.50 299.00 L 664.50 298.00 L 664.50 297.00 L 664.50 296.00 L 664.50 295.00 L 664.50 294.00 L 664.50 293.00 L 664.50 292.00 L 664.50 291.00 L 664.50 290.00 L 664.50 289.00 L 664.50 288.00 L 664.50 287.00 L 664.50 286.00 L 664.50 285.00 L 664.50 284.00 L 664.50 283.00 L 664.50 282.00 L 664.50 281.00 L 664.50 280.00 L 664.50 279.00 L 664.50 278.00 L 664.50 277.00 L 664.50 276.00 L 664.50 275.00 L 664.50 274.00 L 664.50 273.00 L 664.50 272.00 L 664.50 271.00 L 664.50 270.00 L 664.50 269.00 L 664.50 268.00 L 664.50 267.00 L 664.50 266.00 L 664.50 265.00 L 664.50 264.00 L 664.50 263.00 L 664.50 262.00 L 664.50 261.00 L 664.50 260.00 L 664.50 259.00 L 664.50 258.00 L 664.50 257.00 L 664.50 256.00 L 664.50 255.00 L 664.50 254.00 L 664.50 253.00 L 664.50 252.00 L 664.50 251.00 L 664.50 250.00 L 664.50 249.00 L 664.50 248.00 L 664.50 247.00 L 664.50 246.00 L 664.50 245.00 L 664.50 244.00 L 664.50 243.00 L 664.50 242.00 L 664.50 241.00 L 664.50 240.00 L 664.50 239.00 L 664.50 238.00 L 664.50 237.00 L 664.50 236.00 L 664.50 235.00 L 664.50 234.00 L 664.50 233.00 L 664.50 232.00 L 664.50 231.00 L 664.50 230.00 L 664.50 229.00 L 664.50 228.00 L 664.50 227.00 L 664.50 226.00 L 664.50 225.00 L 664.50 224.00 L 664.50 223.00 L 664.50 222.00 L 664.50 221.00 L 664.50 220.00 L 664.50 219.00 L 665.00 218.50 L 665.50 218.00 L 666.00 217.50 L 667.00 217.50 L 668.00 217.50 L 669.00 217.50 L 670.00 217.50 L 671.00 217.50 L 672.00 217.50 L 673.00 217.50 L 674.00 217.50 L 674.50 217.00 L 674.50 216.00 L 674.50 215.00 L 674.50 214.00 L 674.50 213.00 L 674.50 212.00 L 674.50 211.00 L 674.50 210.00 L 674.50 209.00 L 674.50 208.00 L 674.50 207.00 L 674.50 206.00 L 674.50 205.00 L 674.50 204.00 L 674.50 203.00 L 674.50 202.00 L 674.50 201.00 L 674.50 200.00 L 674.50 199.00 L 674.50 198.00 L 674.50 197.00 L 674.50 196.00 L 674.50 195.00 L 674.50 194.00 L 674.50 193.00 L 674.50 192.00 L 674.50 191.00 L 675.00 190.50 L 676.00 190.50 L 677.00 190.50 L 678.00 190.50 L 679.00 190.50 L 680.00 190.50 L 681.00 190.50 L 682.00 190.50 L 683.00 190.50 L 684.00 190.50 L 685.00 190.50 L 686.00 190.50 L 687.00 190.50 L 688.00 190.50 L 689.00 190.50 L 690.00 190.50 L 691.00 190.50 L 692.00 190.50 L 693.00 190.50 L 694.00 190.50 L 695.00 190.50 L 696.00 190.50 L 697.00 190.50 L 698.00 190.50 L 698.50 191.00 L 699.00 191.50 L 699.50 192.00 L 699.50 193.00 L 699.50 194.00 L 699.50 195.00 L 699.50 196.00 L 699.50 197.00 L 699.50 198.00 L 699.50 199.00 L 699.50 200.00 L 699.50 201.00 L 699.50 202.00 L 699.50 203.00 L 699.50 204.00 L 699.50 205.00 L 699.50 206.00 L 699.50 207.00 L 699.50 208.00 L 699.50 209.00 L 699.50 210.00 L 699.50 211.00 L 699.50 212.00 L 699.50 213.00 L 699.50 214.00 L 699.50 215.00 L 699.50 216.00 L 699.50 217.00 L 699.50 218.00 L 699.50 219.00 L 699.50 220.00 L 699.50 221.00 L 699.50 222.00 L 699.50 223.00 L 699.50 224.00 L 699.50 225.00 L 699.50 226.00 L 699.50 227.00 L 699.50 228.00 L 699.50 229.00 L 699.50 230.00 L 699.50 231.00 L 699.50 232.00 L 699.50 233.00 L 699.50 234.00 L 699.50 235.00 L 699.50 236.00 L 699.50 237.00 L 699.50 238.00 L 699.50 239.00 L 699.50 240.00 L 699.50 241.00 L 699.50 242.00 L 699.50 243.00 L 699.50 244.00 L 699.50 245.00 L 699.50 246.00 L 699.50 247.00 L 699.50 248.00 L 699.50 249.00 L 699.50 250.00 L 700.00 250.50 L 701.00 250.50 L 702.00 250.50 L 703.00 250.50 L 704.00 250.50 L 705.00 250.50 L 706.00 250.50 L 707.00 250.50 L 708.00 250.50 L 709.00 250.50 L 710.00 250.50 L 711.00 250.50 L 711.50 250.00 L 711.50 249.00 L 711.50 248.00 L 711.50 247.00 L 711.50 246.00 L 711.50 245.00 L 711.50 244.00 L 711.50 243.00 L 711.50 242.00 L 711.50 241.00 L 711.50 240.00 L 711.50 239.00 L 711.50 238.00 L 711.50 237.00 L 711.50 236.00 L 711.50 235.00 L 711.50 234.00 L 711.50 233.00 L 711.50 232.00 L 711.50 231.00 L 711.50 230.00 L 711.50 229.00 L 711.50 228.00 L 711.50 227.00 L 711.50 226.00 L 711.50 225.00 L 711.50 224.00 L 711.50 223.00 L 711.50 222.00 L 711.50 221.00 L 711.50 220.00 L 711.50 219.00 L 711.50 218.00 L 711.50 217.00 L 711.50 216.00 L 711.50 215.00 L 711.50 214.00 L 711.50 213.00 L 711.50 212.00 L 711.50 211.00 L 712.00 210.50 L 713.00 210.50 L 714.00 210.50 L 715.00 210.50 L 716.00 210.50 L 717.00 210.50 L 718.00 210.50 L 719.00 210.50 L 720.00 210.50 L 721.00 210.50 L 722.00 210.50 L 723.00 210.50 L 724.00 210.50 L 725.00 210.50 L 726.00 210.50 L 727.00 210.50 L 728.00 210.50 L 729.00 210.50 L 730.00 210.50 L 731.00 210.50 L 732.00 210.50 L 733.00 210.50 L 734.00 210.50 L 735.00 210.50 L 736.00 210.50 L 737.00 210.50 L 738.00 210.50 L 739.00 210.50 L 740.00 210.50 L 741.00 210.50 L 742.00 210.50 L 743.00 210.50 L 743.50 211.00 L 743.50 212.00 L 743.50 213.00 L 743.50 214.00 L 743.50 215.00 L 743.50 216.00 L 743.50 217.00 L 743.50 218.00 L 743.50 219.00 L 743.50 220.00 L 743.50 221.00 L 743.50 222.00 L 743.50 223.00 L 743.50 224.00 L 743.50 225.00 L 743.50 226.00 L 743.50 227.00 L 743.50 228.00 L 743.50 229.00 L 743.50 230.00 L 743.50 231.00 L 743.50 232.00 L 743.50 233.00 L 743.50 234.00 L 743.50 235.00 L 743.50 236.00 L 743.50 237.00 L 743.50 238.00 L 743.50 239.00 L 743.50 240.00 L 743.50 241.00 L 743.50 242.00 L 743.50 243.00 L 743.50 244.00 L 743.50 245.00 L 743.50 246.00 L 743.50 247.00 L 743.50 248.00 L 743.50 249.00 L 743.50 250.00 L 743.50 251.00 L 743.50 252.00 L 743.50 253.00 L 743.50 254.00 L 743.50 255.00 L 743.50 256.00 L 743.50 257.00 L 743.50 258.00 L 743.50 259.00 L 743.50 260.00 L 743.50 261.00 L 743.50 262.00 L 743.50 263.00 L 743.50 264.00 L 743.50 265.00 L 743.50 266.00 L 743.50 267.00 L 743.50 268.00 L 743.50 269.00 L 743.50 270.00 L 743.50 271.00 L 743.50 272.00 L 743.50 273.00 L 743.50 274.00 L 743.50 275.00 L 743.50 276.00 L 743.50 277.00 L 743.50 278.00 L 743.50 279.00 L 743.50 280.00 L 743.50 281.00 L 743.50 282.00 L 743.50 283.00 L 743.50 284.00 L 743.50 285.00 L 743.50 286.00 L 743.50 287.00 L 743.50 288.00 L 743.50 289.00 L 743.50 290.00 L 743.50 291.00 L 743.50 292.00 L 743.50 293.00 L 743.50 294.00 L 743.50 295.00 L 743.50 296.00 L 743.50 297.00 L 743.50 298.00 L 743.50 299.00 L 743.50 300.00 L 743.50 301.00 L 743.50 302.00 L 743.50 303.00 L 743.50 304.00 L 743.50 305.00 L 743.50 306.00 L 743.50 307.00 L 743.50 308.00 L 743.50 309.00 L 743.50 310.00 L 743.50 311.00 L 743.50 312.00 L 743.50 313.00 L 743.50 314.00 L 743.50 315.00 L 743.50 316.00 L 743.50 317.00 L 743.50 318.00 L 743.50 319.00 L 743.50 320.00 L 743.50 321.00 L 743.50 322.00 L 743.50 323.00 L 743.50 324.00 L 743.50 325.00 L 743.50 326.00 L 743.50 327.00 L 743.50 328.00 L 743.50 329.00 L 743.50 330.00 L 743.50 331.00 L 743.50 332.00 L 743.50 333.00 L 743.50 334.00 L 743.50 335.00 L 743.50 336.00 L 743.50 337.00 L 743.50 338.00 L 743.50 339.00 L 743.50 340.00 L 743.50 341.00 L 743.50 342.00 L 744.00 342.50 L 745.00 342.50 L 746.00 342.50 L 747.00 342.50 L 748.00 342.50 L 749.00 342.50 L 750.00 342.50 L 751.00 342.50 L 751.50 342.00 L 751.50 341.00 L 751.50 340.00 L 751.50 339.00 L 751.50 338.00 L 751.50 337.00 L 751.50 336.00 L 751.50 335.00 L 751.50 334.00 L 751.50 333.00 L 751.50 332.00 L 751.50 331.00 L 751.50 330.00 L 751.50 329.00 L 751.50 328.00 L 751.50 327.00 L 751.50 326.00 L 751.50 325.00 L 751.50 324.00 L 751.50 323.00 L 751.50 322.00 L 751.50 321.00 L 751.50 320.00 L 751.50 319.00 L 751.50 318.00 L 751.50 317.00 L 751.50 316.00 L 751.50 315.00 L 751.50 314.00 L 751.50 313.00 L 751.50 312.00 L 751.50 311.00 L 751.50 310.00 L 751.50 309.00 L 751.50 308.00 L 751.50 307.00 L 751.50 306.00 L 751.50 305.00 L 751.50 304.00 L 751.50 303.00 L 751.50 302.00 L 751.50 301.00 L 751.50 300.00 L 751.50 299.00 L 751.50 298.00 L 751.50 297.00 L 751.50 296.00 L 751.50 295.00 L 751.50 294.00 L 751.50 293.00 L 751.50 292.00 L 751.50 291.00 L 751.50 290.00 L 751.50 289.00 L 751.50 288.00 L 751.50 287.00 L 751.50 286.00 L 751.50 285.00 L 751.50 284.00 L 751.50 283.00 L 751.50 282.00 L 751.50 281.00 L 751.50 280.00 L 751.50 279.00 L 751.50 278.00 L 751.50 277.00 L 751.50 276.00 L 751.50 275.00 L 751.50 274.00 L 751.50 273.00 L 751.50 272.00 L 751.50 271.00 L 752.00 270.50 L 753.00 270.50 L 754.00 270.50 L 755.00 270.50 L 756.00 270.50 L 757.00 270.50 L 758.00 270.50 L 758.50 270.00 L 758.50 269.00 L 758.50 268.00 L 758.50 267.00 L 758.50 266.00 L 758.50 265.00 L 758.50 264.00 L 758.50 263.00 L 758.50 262.00 L 758.50 261.00 L 758.50 260.00 L 758.50 259.00 L 758.50 258.00 L 758.50 257.00 L 758.50 256.00 L 759.00 255.50 L 759.50 255.00 L 760.00 254.50 L 761.00 254.50 L 762.00 254.50 L 763.00 254.50 L 764.00 254.50 L 765.00 254.50 L 766.00 254.50 L 767.00 254.50 L 768.00 254.50 L 769.00 254.50 L 770.00 254.50 L 771.00 254.50 L 772.00 254.50 L 773.00 254.50 L 774.00 254.50 L 775.00 254.50 L 776.00 254.50 L 777.00 254.50 L 778.00 254.50 L 779.00 254.50 L 780.00 254.50 L 781.00 254.50 L 782.00 254.50 L 783.00 254.50 L 783.50 255.00 L 783.50 256.00 L 783.50 257.00 L 783.50 258.00 L 783.50 259.00 L 783.50 260.00 L 783.50 261.00 L 783.50 262.00 L 783.50 263.00 L 783.50 264.00 L 783.50 265.00 L 783.50 266.00 L 783.50 267.00 L 783.50 268.00 L 783.50 269.00 L 783.50 270.00 L 783.50 271.00 L 783.50 272.00 L 783.50 273.00 L 783.50 274.00 L 783.50 275.00 L 783.50 276.00 L 783.50 277.00 L 783.50 278.00 L 783.50 279.00 L 783.50 280.00 L 783.50 281.00 L 783.50 282.00 L 783.50 283.00 L 783.50 284.00 L 783.50 285.00 L 783.50 286.00 L 783.50 287.00 L 783.50 288.00 L 784.00 288.50 L 785.00 288.50 L 786.00 288.50 L 787.00 288.50 L 788.00 288.50 L 789.00 288.50 L 790.00 288.50 L 791.00 288.50 L 792.00 288.50 L 793.00 288.50 L 793.50 288.00 L 793.50 287.00 L 793.50 286.00 L 793.50 285.00 L 793.50 284.00 L 793.50 283.00 L 793.50 282.00 L 793.50 281.00 L 793.50 280.00 L 793.50 279.00 L 793.50 278.00 L 793.50 277.00 L 793.50 276.00 L 793.50 275.00 L 793.50 274.00 L 793.50 273.00 L 793.50 272.00 L 793.50 271.00 L 793.50 270.00 L 793.50 269.00 L 793.50 268.00 L 793.50 267.00 L 793.50 266.00 L 793.50 265.00 L 793.50 264.00 L 793.50 263.00 L 793.50 262.00 L 793.50 261.00 L 793.50 260.00 L 793.50 259.00 L 793.50 258.00 L 793.50 257.00 L 793.50 256.00 L 794.00 255.50 L 795.00 255.50 L 796.00 255.50 L 797.00 255.50 L 798.00 255.50 L 799.00 255.50 L 800.00 255.50 L 801.00 255.50 L 802.00 255.50 L 803.00 255.50 L 804.00 255.50 L 805.00 255.50 L 806.00 255.50 L 807.00 255.50 L 808.00 255.50 L 809.00 255.50 L 810.00 255.50 L 811.00 255.50 L 812.00 255.50 L 813.00 255.50 L 813.50 256.00 L 813.50 257.00 L 813.50 258.00 L 813.50 259.00 L 813.50 260.00 L 813.50 261.00 L 813.50 262.00 L 813.50 263.00 L 813.50 264.00 L 813.50 265.00 L 813.50 266.00 L 813.50 267.00 L 813.50 268.00 L 813.50 269.00 L 813.50 270.00 L 814.00 270.50 L 815.00 270.50 L 816.00 270.50 L 817.00 270.50 L 818.00 270.50 L 819.00 270.50 L 820.00 270.50 L 821.00 270.50 L 822.00 270.50 L 823.00 270.50 L 824.00 270.50 L 825.00 270.50 L 826.00 270.50 L 827.00 270.50 L 828.00 270.50 L 829.00 270.50 L 830.00 270.50 L 831.00 270.50 L 832.00 270.50 L 833.00 270.50 L 834.00 270.50 L 835.00 270.50 L 836.00 270.50 L 837.00 270.50 L 838.00 270.50 L 839.00 270.50 L 840.00 270.50 L 841.00 270.50 L 842.00 270.50 L 843.00 270.50 L 844.00 270.50 L 845.00 270.50 L 845.50 271.00 L 845.50 272.00 L 845.50 273.00 L 845.50 274.00 L 845.50 275.00 L 845.50 276.00 L 845.50 277.00 L 845.50 278.00 L 845.50 279.00 L 845.50 280.00 L 845.50 281.00 L 845.50 282.00 L 845.50 283.00 L 845.50 284.00 L 845.50 285.00 L 845.50 286.00 L 845.50 287.00 L 845.50 288.00 L 845.50 289.00 L 845.50 290.00 L 845.50 291.00 L 845.50 292.00 L 845.50 293.00 L 845.50 294.00 L 845.50 295.00 L 845.50 296.00 L 845.50 297.00 L 845.50 298.00 L 845.50 299.00 L 845.50 300.00 L 845.50 301.00 L 845.50 302.00 L 845.50 303.00 L 845.50 304.00 L 845.50 305.00 L 845.50 306.00 L 845.50 307.00 L 846.00 307.50 L 847.00 307.50 L 848.00 307.50 L 848.50 307.00 L 848.50 306.00 L 848.50 305.00 L 848.50 304.00 L 848.50 303.00 L 848.50 302.00 L 848.50 301.00 L 848.50 300.00 L 848.50 299.00 L 848.50 298.00 L 848.50 297.00 L 848.50 296.00 L 848.50 295.00 L 848.50 294.00 L 848.50 293.00 L 848.50 292.00 L 848.50 291.00 L 848.50 290.00 L 848.50 289.00 L 848.50 288.00 L 848.50 287.00 L 848.50 286.00 L 848.50 285.00 L 848.50 284.00 L 848.50 283.00 L 848.50 282.00 L 848.50 281.00 L 848.50 280.00 L 848.50 279.00 L 848.50 278.00 L 848.50 277.00 L 848.50 276.00 L 849.00 275.50 L 850.00 275.50 L 851.00 275.50 L 852.00 275.50 L 853.00 275.50 L 854.00 275.50 L 855.00 275.50 L 856.00 275.50 L 857.00 275.50 L 858.00 275.50 L 859.00 275.50 L 860.00 275.50 L 860.50 276.00 L 861.00 276.50 L 861.50 277.00 L 861.50 278.00 L 861.50 279.00 L 861.50 280.00 L 861.50 281.00 L 861.50 282.00 L 861.50 283.00 L 861.50 284.00 L 861.50 285.00 L 861.50 286.00 L 861.50 287.00 L 861.50 288.00 L 861.50 289.00 L 861.50 290.00 L 861.50 291.00 L 861.50 292.00 L 861.50 293.00 L 861.50 294.00 L 861.50 295.00 L 861.50 296.00 L 861.50 297.00 L 861.50 298.00 L 861.50 299.00 L 861.50 300.00 L 861.50 301.00 L 861.50 302.00 L 861.50 303.00 L 861.50 304.00 L 861.50 305.00 L 861.50 306.00 L 861.50 307.00 L 862.00 307.50 L 863.00 307.50 L 864.00 307.50 L 865.00 307.50 L 866.00 307.50 L 867.00 307.50 L 867.50 307.00 L 867.50 306.00 L 867.50 305.00 L 867.50 304.00 L 867.50 303.00 L 867.50 302.00 L 867.50 301.00 L 867.50 300.00 L 867.50 299.00 L 867.50 298.00 L 867.50 297.00 L 867.50 296.00 L 867.50 295.00 L 867.50 294.00 L 867.50 293.00 L 867.50 292.00 L 867.50 291.00 L 867.50 290.00 L 867.50 289.00 L 867.50 288.00 L 867.50 287.00 L 867.50 286.00 L 867.50 285.00 L 867.50 284.00 L 867.50 283.00 L 867.50 282.00 L 867.50 281.00 L 867.50 280.00 L 867.50 279.00 L 867.50 278.00 L 867.50 277.00 L 868.00 276.50 L 868.50 276.00 L 869.00 275.50 L 870.00 275.50 L 871.00 275.50 L 872.00 275.50 L 873.00 275.50 L 874.00 275.50 L 875.00 275.50 L 876.00 275.50 L 877.00 275.50 L 878.00 275.50 L 879.00 275.50 L 880.00 275.50 L 881.00 275.50 L 882.00 275.50 L 882.50 276.00 L 882.50 277.00 L 882.50 278.00 L 882.50 279.00 L 882.50 280.00 L 882.50 281.00 L 882.50 282.00 L 882.50 283.00 L 882.50 284.00 L 882.50 285.00 L 882.50 286.00 L 882.50 287.00 L 882.50 288.00 L 882.50 289.00 L 882.50 290.00 L 882.50 291.00 L 882.50 292.00 L 882.50 293.00 L 882.50 294.00 L 882.50 295.00 L 882.50 296.00 L 882.50 297.00 L 883.00 297.50 L 884.00 297.50 L 885.00 297.50 L 886.00 297.50 L 887.00 297.50 L 888.00 297.50 L 889.00 297.50 L 890.00 297.50 L 891.00 297.50 L 891.50 297.00 L 891.50 296.00 L 891.50 295.00 L 891.50 294.00 L 891.50 293.00 L 891.50 292.00 L 891.50 291.00 L 891.50 290.00 L 892.00 289.50 L 893.00 289.50 L 894.00 289.50 L 895.00 289.50 L 896.00 289.50 L 897.00 289.50 L 898.00 289.50 L 899.00 289.50 L 900.00 289.50 L 901.00 289.50 L 902.00 289.50 L 903.00 289.50 L 904.00 289.50 L 905.00 289.50 L 906.00 289.50 L 906.50 290.00 L 906.50 291.00 L 906.50 292.00 L 906.50 293.00 L 906.50 294.00 L 906.50 295.00 L 906.50 296.00 L 906.50 297.00 L 906.50 298.00 L 906.50 299.00 L 906.50 300.00 L 906.50 301.00 L 906.50 302.00 L 907.00 302.50 L 908.00 302.50 L 909.00 302.50 L 910.00 302.50 L 911.00 302.50 L 912.00 302.50 L 913.00 302.50 L 914.00 302.50 L 914.50 303.00 L 914.50 304.00 L 914.50 305.00 L 914.50 306.00 L 914.50 307.00 L 914.50 308.00 L 914.50 309.00 L 914.50 310.00 L 914.50 311.00 L 914.50 312.00 L 914.50 313.00 L 914.50 314.00 L 915.00 314.50 L 916.00 314.50 L 917.00 314.50 L 918.00 314.50 L 919.00 314.50 L 920.00 314.50 L 921.00 314.50 L 922.00 314.50 L 923.00 314.50 L 924.00 314.50 L 925.00 314.50 L 926.00 314.50 L 926.50 314.00 L 927.00 313.50 L 927.50 313.00 L 927.50 312.00 L 927.50 311.00 L 927.50 310.00 L 927.50 309.00 L 927.50 308.00 L 927.50 307.00 L 927.50 306.00 L 927.50 305.00 L 927.50 304.00 L 927.50 303.00 L 927.50 302.00 L 927.50 301.00 L 927.50 300.00 L 927.50 299.00 L 927.50 298.00 L 927.50 297.00 L 927.50 296.00 L 927.50 295.00 L 927.50 294.00 L 927.50 293.00 L 927.50 292.00 L 927.50 291.00 L 927.50 290.00 L 927.50 289.00 L 927.50 288.00 L 927.50 287.00 L 927.50 286.00 L 927.50 285.00 L 927.50 284.00 L 927.50 283.00 L 927.50 282.00 L 927.50 281.00 L 927.50 280.00 L 927.50 279.00 L 927.50 278.00 L 927.50 277.00 L 927.50 276.00 L 927.50 275.00 L 927.50 274.00 L 927.50 273.00 L 927.50 272.00 L 927.50 271.00 L 927.50 270.00 L 927.50 269.00 L 927.50 268.00 L 927.50 267.00 L 927.50 266.00 L 927.50 265.00 L 927.50 264.00 L 927.50 263.00 L 927.50 262.00 L 927.50 261.00 L 927.50 260.00 L 927.50 259.00 L 927.50 258.00 L 927.50 257.00 L 927.50 256.00 L 927.50 255.00 L 927.50 254.00 L 927.50 253.00 L 927.50 252.00 L 927.50 251.00 L 927.50 250.00 L 927.50 249.00 L 927.50 248.00 L 927.50 247.00 L 927.50 246.00 L 927.50 245.00 L 927.50 244.00 L 928.00 243.50 L 929.00 243.50 L 930.00 243.50 L 931.00 243.50 L 932.00 243.50 L 933.00 243.50 L 934.00 243.50 L 935.00 243.50 L 936.00 243.50 L 937.00 243.50 L 938.00 243.50 L 939.00 243.50 L 940.00 243.50 L 941.00 243.50 L 942.00 243.50 L 942.50 244.00 L 943.00 244.50 L 944.00 244.50 L 944.50 245.00 L 945.00 245.50 L 945.50 246.00 L 946.00 246.50 L 947.00 246.50 L 947.50 247.00 L 948.00 247.50 L 948.50 248.00 L 949.00 248.50 L 949.50 249.00 L 950.00 249.50 L 951.00 249.50 L 951.50 250.00 L 951.50 251.00 L 951.50 252.00 L 951.50 253.00 L 951.50 254.00 L 951.50 255.00 L 951.50 256.00 L 951.50 257.00 L 951.50 258.00 L 951.50 259.00 L 951.50 260.00 L 951.50 261.00 L 951.50 262.00 L 951.50 263.00 L 951.50 264.00 L 951.50 265.00 L 951.50 266.00 L 951.50 267.00 L 951.50 268.00 L 951.50 269.00 L 951.50 270.00 L 951.50 271.00 L 951.50 272.00 L 951.50 273.00 L 951.50 274.00 L 951.50 275.00 L 951.50 276.00 L 951.50 277.00 L 951.50 278.00 L 951.50 279.00 L 951.50 280.00 L 951.50 281.00 L 951.50 282.00 L 951.50 283.00 L 951.50 284.00 L 951.50 285.00 L 951.50 286.00 L 951.50 287.00 L 951.50 288.00 L 951.50 289.00 L 951.50 290.00 L 951.50 291.00 L 951.50 292.00 L 951.50 293.00 L 952.00 293.50 L 953.00 293.50 L 954.00 293.50 L 955.00 293.50 L 956.00 293.50 L 957.00 293.50 L 958.00 293.50 L 959.00 293.50 L 960.00 293.50 L 961.00 293.50 L 962.00 293.50 L 963.00 293.50 L 964.00 293.50 L 964.50 294.00 L 964.50 295.00 L 964.50 296.00 L 964.50 297.00 L 964.50 298.00 L 964.50 299.00 L 964.50 300.00 L 964.50 301.00 L 964.50 302.00 L 964.50 303.00 L 964.50 304.00 L 964.50 305.00 L 964.50 306.00 L 965.00 306.50 L 966.00 306.50 L 967.00 306.50 L 968.00 306.50 L 969.00 306.50 L 970.00 306.50 L 971.00 306.50 L 972.00 306.50 L 973.00 306.50 L 974.00 306.50 L 974.50 307.00 L 975.00 307.50 L 975.50 308.00 L 975.50 309.00 L 975.50 310.00 L 975.50 311.00 L 975.50 312.00 L 975.50 313.00 L 975.50 314.00 L 975.50 315.00 L 975.50 316.00 L 975.50 317.00 L 975.50 318.00 L 975.50 319.00 L 975.50 320.00 L 975.50 321.00 L 975.50 322.00 L 975.50 323.00 L 975.50 324.00 L 975.50 325.00 L 975.50 326.00 L 975.50 327.00 L 975.50 328.00 L 975.50 329.00 L 975.50 330.00 L 975.50 331.00 L 975.50 332.00 L 975.50 333.00 L 975.50 334.00 L 975.50 335.00 L 975.50 336.00 L 975.50 337.00 L 975.50 338.00 L 975.50 339.00 L 975.50 340.00 L 975.50 341.00 L 975.50 342.00 L 975.50 343.00 L 975.50 344.00 L 975.50 345.00 L 975.50 346.00 L 975.50 347.00 L 975.50 348.00 L 975.50 349.00 L 975.50 350.00 L 975.50 351.00 L 975.50 352.00 L 975.50 353.00 L 975.50 354.00 L 975.50 355.00 L 975.50 356.00 L 975.50 357.00 L 975.50 358.00 L 975.50 359.00 L 976.00 359.50 L 977.00 359.50 L 977.50 359.00 L 977.50 358.00 L 977.50 357.00 L 977.50 356.00 L 977.50 355.00 L 977.50 354.00 L 977.50 353.00 L 977.50 352.00 L 977.50 351.00 L 977.50 350.00 L 977.50 349.00 L 977.50 348.00 L 977.50 347.00 L 977.50 346.00 L 977.50 345.00 L 977.50 344.00 L 977.50 343.00 L 977.50 342.00 L 977.50 341.00 L 977.50 340.00 L 977.50 339.00 L 977.50 338.00 L 977.50 337.00 L 977.50 336.00 L 977.50 335.00 L 977.50 334.00 L 977.50 333.00 L 977.50 332.00 L 977.50 331.00 L 977.50 330.00 L 977.50 329.00 L 977.50 328.00 L 977.50 327.00 L 978.00 326.50 L 979.00 326.50 L 980.00 326.50 L 981.00 326.50 L 982.00 326.50 L 983.00 326.50 L 983.50 326.00 L 983.50 325.00 L 983.50 324.00 L 983.50 323.00 L 983.50 322.00 L 983.50 321.00 L 983.50 320.00 L 983.50 319.00 L 983.50 318.00 L 983.50 317.00 L 983.50 316.00 L 983.50 315.00 L 983.50 314.00 L 983.50 313.00 L 983.50 312.00 L 983.50 311.00 L 983.50 310.00 L 983.50 309.00 L 984.00 308.50 L 985.00 308.50 L 986.00 308.50 L 987.00 308.50 L 988.00 308.50 L 989.00 308.50 L 990.00 308.50 L 991.00 308.50 L 992.00 308.50 L 993.00 308.50 L 994.00 308.50 L 995.00 308.50 L 996.00 308.50 L 997.00 308.50 L 998.00 308.50 L 999.00 308.50 L 1000.00 308.50 L 1001.00 308.50 L 1002.00 308.50 L 1003.00 308.50 L 1004.00 308.50 L 1005.00 308.50 L 1006.00 308.50 L 1007.00 308.50 L 1008.00 308.50 L 1009.00 308.50 L 1009.50 309.00 L 1010.00 309.50 L 1010.50 310.00 L 1010.50 311.00 L 1010.50 312.00 L 1010.50 313.00 L 1010.50 314.00 L 1010.50 315.00 L 1010.50 316.00 L 1010.50 317.00 L 1011.00 317.50 L 1012.00 317.50 L 1013.00 317.50 L 1014.00 317.50 L 1015.00 317.50 L 1016.00 317.50 L 1016.50 317.00 L 1016.50 316.00 L 1016.50 315.00 L 1016.50 314.00 L 1016.50 313.00 L 1016.50 312.00 L 1016.50 311.00 L 1016.50 310.00 L 1016.50 309.00 L 1016.50 308.00 L 1016.50 307.00 L 1016.50 306.00 L 1016.50 305.00 L 1016.50 304.00 L 1016.50 303.00 L 1016.50 302.00 L 1016.50 301.00 L 1016.50 300.00 L 1016.50 299.00 L 1016.50 298.00 L 1016.50 297.00 L 1016.50 296.00 L 1016.50 295.00 L 1016.50 294.00 L 1016.50 293.00 L 1016.50 292.00 L 1016.50 291.00 L 1017.00 290.50 L 1018.00 290.50 L 1019.00 290.50 L 1020.00 290.50 L 1021.00 290.50 L 1022.00 290.50 L 1023.00 290.50 L 1024.00 290.50 L 1025.00 290.50 L 1026.00 290.50 L 1027.00 290.50 L 1028.00 290.50 L 1029.00 290.50 L 1030.00 290.50 L 1031.00 290.50 L 1032.00 290.50 L 1033.00 290.50 L 1034.00 290.50 L 1035.00 290.50 L 1035.50 291.00 L 1035.50 292.00 L 1035.50 293.00 L 1035.50 294.00 L 1035.50 295.00 L 1035.50 296.00 L 1035.50 297.00 L 1035.50 298.00 L 1035.50 299.00 L 1035.50 300.00 L 1036.00 300.50 L 1037.00 300.50 L 1038.00 300.50 L 1039.00 300.50 L 1040.00 300.50 L 1041.00 300.50 L 1042.00 300.50 L 1043.00 300.50 L 1044.00 300.50 L 1045.00 300.50 L 1046.00 300.50 L 1047.00 300.50 L 1048.00 300.50 L 1049.00 300.50 L 1050.00 300.50 L 1051.00 300.50 L 1052.00 300.50 L 1053.00 300.50 L 1054.00 300.50 L 1055.00 300.50 L 1056.00 300.50 L 1057.00 300.50 L 1058.00 300.50 L 1059.00 300.50 L 1060.00 300.50 L 1061.00 300.50 L 1062.00 300.50 L 1063.00 300.50 L 1064.00 300.50 L 1064.50 301.00 L 1064.50 302.00 L 1064.50 303.00 L 1064.50 304.00 L 1064.50 305.00 L 1064.50 306.00 L 1064.50 307.00 L 1064.50 308.00 L 1064.50 309.00 L 1064.50 310.00 L 1064.50 311.00 L 1064.50 312.00 L 1064.50 313.00 L 1064.50 314.00 L 1065.00 314.50 L 1065.50 315.00 L 1066.00 315.50 L 1067.00 315.50 L 1068.00 315.50 L 1069.00 315.50 L 1069.50 315.00 L 1070.00 314.50 L 1070.50 314.00 L 1070.50 313.00 L 1070.50 312.00 L 1070.50 311.00 L 1070.50 310.00 L 1070.50 309.00 L 1070.50 308.00 L 1070.50 307.00 L 1070.50 306.00 L 1070.50 305.00 L 1070.50 304.00 L 1071.00 303.50 L 1072.00 303.50 L 1073.00 303.50 L 1074.00 303.50 L 1075.00 303.50 L 1076.00 303.50 L 1077.00 303.50 L 1078.00 303.50 L 1079.00 303.50 L 1080.00 303.50 L 1081.00 303.50 L 1082.00 303.50 L 1083.00 303.50 L 1084.00 303.50 L 1085.00 303.50 L 1086.00 303.50 L 1087.00 303.50 L 1087.50 304.00 L 1087.50 305.00 L 1087.50 306.00 L 1087.50 307.00 L 1087.50 308.00 L 1087.50 309.00 L 1087.50 310.00 L 1087.50 311.00 L 1087.50 312.00 L 1087.50 313.00 L 1087.50 314.00 L 1087.50 315.00 L 1088.00 315.50 L 1089.00 315.50 L 1090.00 315.50 L 1091.00 315.50 L 1092.00 315.50 L 1093.00 315.50 L 1093.50 316.00 L 1093.50 317.00 L 1093.50 318.00 L 1093.50 319.00 L 1093.50 320.00 L 1093.50 321.00 L 1093.50 322.00 L 1093.50 323.00 L 1093.50 324.00 L 1093.50 325.00 L 1093.50 326.00 L 1093.50 327.00 L 1093.50 328.00 L 1093.50 329.00 L 1093.50 330.00 L 1093.50 331.00 L 1093.50 332.00 L 1093.50 333.00 L 1093.50 334.00 L 1093.50 335.00 L 1093.50 336.00 L 1093.50 337.00 L 1093.50 338.00 L 1093.50 339.00 L 1093.50 340.00 L 1093.50 341.00 L 1093.50 342.00 L 1093.50 343.00 L 1093.50 344.00 L 1093.50 345.00 L 1093.50 346.00 L 1093.50 347.00 L 1093.50 348.00 L 1093.50 349.00 L 1093.50 350.00 L 1093.50 351.00 L 1094.00 351.50 L 1095.00 351.50 L 1096.00 351.50 L 1097.00 351.50 L 1098.00 351.50 L 1099.00 351.50 L 1099.50 352.00 L 1099.50 353.00 L 1099.50 354.00 L 1099.50 355.00 L 1099.50 356.00 L 1099.50 357.00 L 1099.50 358.00 L 1099.50 359.00 L 1099.50 360.00 L 1099.50 361.00 L 1100.00 361.50 L 1101.00 361.50 L 1101.50 361.00 L 1101.50 360.00 L 1101.50 359.00 L 1101.50 358.00 L 1101.50 357.00 L 1101.50 356.00 L 1101.50 355.00 L 1101.50 354.00 L 1101.50 353.00 L 1101.50 352.00 L 1101.50 351.00 L 1101.50 350.00 L 1101.50 349.00 L 1101.50 348.00 L 1101.50 347.00 L 1101.50 346.00 L 1101.50 345.00 L 1101.50 344.00 L 1101.50 343.00 L 1101.50 342.00 L 1101.50 341.00 L 1101.50 340.00 L 1101.50 339.00 L 1101.50 338.00 L 1101.50 337.00 L 1101.50 336.00 L 1101.50 335.00 L 1101.50 334.00 L 1101.50 333.00 L 1101.50 332.00 L 1101.50 331.00 L 1101.50 330.00 L 1101.50 329.00 L 1101.50 328.00 L 1101.50 327.00 L 1101.50 326.00 L 1101.50 325.00 L 1101.50 324.00 L 1101.50 323.00 L 1101.50 322.00 L 1101.50 321.00 L 1101.50 320.00 L 1101.50 319.00 L 1101.50 318.00 L 1101.50 317.00 L 1101.50 316.00 L 1101.50 315.00 L 1101.50 314.00 L 1102.00 313.50 L 1102.50 313.00 L 1103.00 312.50 L 1104.00 312.50 L 1105.00 312.50 L 1106.00 312.50 L 1107.00 312.50 L 1108.00 312.50 L 1108.50 312.00 L 1108.50 311.00 L 1108.50 310.00 L 1108.50 309.00 L 1108.50 308.00 L 1108.50 307.00 L 1108.50 306.00 L 1109.00 305.50 L 1110.00 305.50 L 1111.00 305.50 L 1111.50 305.00 L 1112.00 304.50 L 1113.00 304.50 L 1114.00 304.50 L 1115.00 304.50 L 1115.50 304.00 L 1116.00 303.50 L 1117.00 303.50 L 1118.00 303.50 L 1119.00 303.50 L 1119.50 303.00 L 1120.00 302.50 L 1121.00 302.50 L 1122.00 302.50 L 1123.00 302.50 L 1124.00 302.50 L 1124.50 302.00 L 1125.00 301.50 L 1126.00 301.50 L 1127.00 301.50 L 1127.50 301.00 L 1128.00 300.50 L 1129.00 300.50 L 1129.50 301.00 L 1129.50 302.00 L 1129.50 303.00 L 1129.50 304.00 L 1129.50 305.00 L 1129.50 306.00 L 1129.50 307.00 L 1129.50 308.00 L 1129.50 309.00 L 1129.50 310.00 L 1129.50 311.00 L 1129.50 312.00 L 1129.50 313.00 L 1129.50 314.00 L 1129.50 315.00 L 1129.50 316.00 L 1129.50 317.00 L 1129.50 318.00 L 1129.50 319.00 L 1129.50 320.00 L 1129.50 321.00 L 1129.50 322.00 L 1129.50 323.00 L 1129.50 324.00 L 1129.50 325.00 L 1129.50 326.00 L 1129.50 327.00 L 1129.50 328.00 L 1129.50 329.00 L 1129.50 330.00 L 1129.50 331.00 L 1129.50 332.00 L 1129.50 333.00 L 1129.50 334.00 L 1129.50 335.00 L 1129.50 336.00 L 1129.50 337.00 L 1129.50 338.00 L 1129.50 339.00 L 1129.50 340.00 L 1129.50 341.00 L 1129.50 342.00 L 1129.50 343.00 L 1129.50 344.00 L 1129.50 345.00 L 1129.50 346.00 L 1129.50 347.00 L 1129.50 348.00 L 1129.50 349.00 L 1129.50 350.00 L 1129.50 351.00 L 1129.50 352.00 L 1129.50 353.00 L 1129.50 354.00 L 1129.50 355.00 L 1129.50 356.00 L 1129.50 357.00 L 1129.50 358.00 L 1129.50 359.00 L 1129.50 360.00 L 1129.50 361.00 L 1130.00 361.50 L 1131.00 361.50 L 1132.00 361.50 L 1133.00 361.50 L 1134.00 361.50 L 1135.00 361.50 L 1136.00 361.50 L 1137.00 361.50 L 1138.00 361.50 L 1139.00 361.50 L 1140.00 361.50 L 1141.00 361.50 L 1142.00 361.50 L 1143.00 361.50 L 1144.00 361.50 L 1145.00 361.50 L 1146.00 361.50 L 1147.00 361.50 L 1148.00 361.50 L 1149.00 361.50 L 1150.00 361.50 L 1151.00 361.50 L 1152.00 361.50 L 1153.00 361.50 L 1154.00 361.50 L 1155.00 361.50 L 1156.00 361.50 L 1157.00 361.50 L 1158.00 361.50 L 1159.00 361.50 L 1160.00 361.50 L 1161.00 361.50 L 1161.50 362.00 L 1161.50 363.00 L 1161.50 364.00 L 1161.50 365.00 L 1161.50 366.00 L 1161.50 367.00 L 1161.50 368.00 L 1161.50 369.00 L 1161.50 370.00 L 1161.50 371.00 L 1161.50 372.00 L 1161.50 373.00 L 1161.50 374.00 L 1161.50 375.00 L 1161.50 376.00 L 1161.50 377.00 L 1161.50 378.00 L 1161.50 379.00 L 1161.50 380.00 L 1161.50 381.00 L 1161.50 382.00 L 1161.50 383.00 L 1161.50 384.00 L 1161.50 385.00 L 1161.50 386.00 L 1161.50 387.00 L 1161.50 388.00 L 1161.50 389.00 L 1161.50 390.00 L 1161.50 391.00 L 1161.50 392.00 L 1161.50 393.00 L 1161.50 394.00 L 1161.50 395.00 L 1161.50 396.00 L 1161.50 397.00 L 1161.50 398.00 L 1161.50 399.00 L 1161.50 400.00 L 1161.50 401.00 L 1161.50 402.00 L 1161.50 403.00 L 1161.50 404.00 L 1161.50 405.00 L 1161.50 406.00 L 1161.00 406.50 L 1160.00 406.50 L 1159.00 406.50 L 1158.00 406.50 L 1157.00 406.50 L 1156.00 406.50 L 1155.00 406.50 L 1154.00 406.50 L 1153.00 406.50 L 1152.00 406.50 L 1151.00 406.50 L 1150.00 406.50 L 1149.00 406.50 L 1148.00 406.50 L 1147.00 406.50 L 1146.00 406.50 L 1145.00 406.50 L 1144.00 406.50 L 1143.00 406.50 L 1142.00 406.50 L 1141.00 406.50 L 1140.00 406.50 L 1139.00 406.50 L 1138.00 406.50 L 1137.00 406.50 L 1136.00 406.50 L 1135.00 406.50 L 1134.00 406.50 L 1133.00 406.50 L 1132.00 406.50 L 1131.00 406.50 L 1130.00 406.50 L 1129.00 406.50 L 1128.00 406.50 L 1127.00 406.50 L 1126.00 406.50 L 1125.00 406.50 L 1124.00 406.50 L 1123.00 406.50 L 1122.00 406.50 L 1121.00 406.50 L 1120.00 406.50 L 1119.00 406.50 L 1118.00 406.50 L 1117.00 406.50 L 1116.00 406.50 L 1115.00 406.50 L 1114.00 406.50 L 1113.00 406.50 L 1112.00 406.50 L 1111.00 406.50 L 1110.00 406.50 L 1109.00 406.50 L 1108.00 406.50 L 1107.00 406.50 L 1106.00 406.50 L 1105.00 406.50 L 1104.00 406.50 L 1103.00 406.50 L 1102.00 406.50 L 1101.00 406.50 L 1100.00 406.50 L 1099.00 406.50 L 1098.00 406.50 L 1097.00 406.50 L 1096.00 406.50 L 1095.00 406.50 L 1094.00 406.50 L 1093.00 406.50 L 1092.00 406.50 L 1091.00 406.50 L 1090.00 406.50 L 1089.00 406.50 L 1088.00 406.50 L 1087.00 406.50 L 1086.00 406.50 L 1085.00 406.50 L 1084.00 406.50 L 1083.00 406.50 L 1082.00 406.50 L 1081.00 406.50 L 1080.00 406.50 L 1079.00 406.50 L 1078.00 406.50 L 1077.00 406.50 L 1076.00 406.50 L 1075.00 406.50 L 1074.00 406.50 L 1073.00 406.50 L 1072.00 406.50 L 1071.00 406.50 L 1070.00 406.50 L 1069.00 406.50 L 1068.00 406.50 L 1067.00 406.50 L 1066.00 406.50 L 1065.00 406.50 L 1064.00 406.50 L 1063.00 406.50 L 1062.00 406.50 L 1061.00 406.50 L 1060.00 406.50 L 1059.00 406.50 L 1058.00 406.50 L 1057.00 406.50 L 1056.00 406.50 L 1055.00 406.50 L 1054.00 406.50 L 1053.00 406.50 L 1052.00 406.50 L 1051.00 406.50 L 1050.00 406.50 L 1049.00 406.50 L 1048.00 406.50 L 1047.00 406.50 L 1046.00 406.50 L 1045.00 406.50 L 1044.00 406.50 L 1043.00 406.50 L 1042.00 406.50 L 1041.00 406.50 L 1040.00 406.50 L 1039.00 406.50 L 1038.00 406.50 L 1037.00 406.50 L 1036.00 406.50 L 1035.00 406.50 L 1034.00 406.50 L 1033.00 406.50 L 1032.00 406.50 L 1031.00 406.50 L 1030.00 406.50 L 1029.00 406.50 L 1028.00 406.50 L 1027.00 406.50 L 1026.00 406.50 L 1025.00 406.50 L 1024.00 406.50 L 1023.00 406.50 L 1022.00 406.50 L 1021.00 406.50 L 1020.00 406.50 L 1019.00 406.50 L 1018.00 406.50 L 1017.00 406.50 L 1016.00 406.50 L 1015.00 406.50 L 1014.00 406.50 L 1013.00 406.50 L 1012.00 406.50 L 1011.00 406.50 L 1010.00 406.50 L 1009.00 406.50 L 1008.00 406.50 L 1007.00 406.50 L 1006.00 406.50 L 1005.00 406.50 L 1004.00 406.50 L 1003.00 406.50 L 1002.00 406.50 L 1001.00 406.50 L 1000.00 406.50 L 999.00 406.50 L 998.00 406.50 L 997.00 406.50 L 996.00 406.50 L 995.00 406.50 L 994.00 406.50 L 993.00 406.50 L 992.00 406.50 L 991.00 406.50 L 990.00 406.50 L 989.00 406.50 L 988.00 406.50 L 987.00 406.50 L 986.00 406.50 L 985.00 406.50 L 984.00 406.50 L 983.00 406.50 L 982.00 406.50 L 981.00 406.50 L 980.00 406.50 L 979.00 406.50 L 978.00 406.50 L 977.00 406.50 L 976.00 406.50 L 975.00 406.50 L 974.00 406.50 L 973.00 406.50 L 972.00 406.50 L 971.00 406.50 L 970.00 406.50 L 969.00 406.50 L 968.00 406.50 L 967.00 406.50 L 966.00 406.50 L 965.00 406.50 L 964.00 406.50 L 963.00 406.50 L 962.00 406.50 L 961.00 406.50 L 960.00 406.50 L 959.00 406.50 L 958.00 406.50 L 957.00 406.50 L 956.00 406.50 L 955.00 406.50 L 954.00 406.50 L 953.00 406.50 L 952.00 406.50 L 951.00 406.50 L 950.00 406.50 L 949.00 406.50 L 948.00 406.50 L 947.00 406.50 L 946.00 406.50 L 945.00 406.50 L 944.00 406.50 L 943.00 406.50 L 942.00 406.50 L 941.00 406.50 L 940.00 406.50 L 939.00 406.50 L 938.00 406.50 L 937.00 406.50 L 936.00 406.50 L 935.00 406.50 L 934.00 406.50 L 933.00 406.50 L 932.00 406.50 L 931.00 406.50 L 930.00 406.50 L 929.00 406.50 L 928.00 406.50 L 927.00 406.50 L 926.00 406.50 L 925.00 406.50 L 924.00 406.50 L 923.00 406.50 L 922.00 406.50 L 921.00 406.50 L 920.00 406.50 L 919.00 406.50 L 918.00 406.50 L 917.00 406.50 L 916.00 406.50 L 915.00 406.50 L 914.00 406.50 L 913.00 406.50 L 912.00 406.50 L 911.00 406.50 L 910.00 406.50 L 909.00 406.50 L 908.00 406.50 L 907.00 406.50 L 906.00 406.50 L 905.00 406.50 L 904.00 406.50 L 903.00 406.50 L 902.00 406.50 L 901.00 406.50 L 900.00 406.50 L 899.00 406.50 L 898.00 406.50 L 897.00 406.50 L 896.00 406.50 L 895.00 406.50 L 894.00 406.50 L 893.00 406.50 L 892.00 406.50 L 891.00 406.50 L 890.00 406.50 L 889.00 406.50 L 888.00 406.50 L 887.00 406.50 L 886.00 406.50 L 885.00 406.50 L 884.00 406.50 L 883.00 406.50 L 882.00 406.50 L 881.00 406.50 L 880.00 406.50 L 879.00 406.50 L 878.00 406.50 L 877.00 406.50 L 876.00 406.50 L 875.00 406.50 L 874.00 406.50 L 873.00 406.50 L 872.00 406.50 L 871.00 406.50 L 870.00 406.50 L 869.00 406.50 L 868.00 406.50 L 867.00 406.50 L 866.00 406.50 L 865.00 406.50 L 864.00 406.50 L 863.00 406.50 L 862.00 406.50 L 861.00 406.50 L 860.00 406.50 L 859.00 406.50 L 858.00 406.50 L 857.00 406.50 L 856.00 406.50 L 855.00 406.50 L 854.00 406.50 L 853.00 406.50 L 852.00 406.50 L 851.00 406.50 L 850.00 406.50 L 849.00 406.50 L 848.00 406.50 L 847.00 406.50 L 846.00 406.50 L 845.00 406.50 L 844.00 406.50 L 843.00 406.50 L 842.00 406.50 L 841.00 406.50 L 840.00 406.50 L 839.00 406.50 L 838.00 406.50 L 837.00 406.50 L 836.00 406.50 L 835.00 406.50 L 834.00 406.50 L 833.00 406.50 L 832.00 406.50 L 831.00 406.50 L 830.00 406.50 L 829.00 406.50 L 828.00 406.50 L 827.00 406.50 L 826.00 406.50 L 825.00 406.50 L 824.00 406.50 L 823.00 406.50 L 822.00 406.50 L 821.00 406.50 L 820.00 406.50 L 819.00 406.50 L 818.00 406.50 L 817.00 406.50 L 816.00 406.50 L 815.00 406.50 L 814.00 406.50 L 813.00 406.50 L 812.00 406.50 L 811.00 406.50 L 810.00 406.50 L 809.00 406.50 L 808.00 406.50 L 807.00 406.50 L 806.00 406.50 L 805.00 406.50 L 804.00 406.50 L 803.00 406.50 L 802.00 406.50 L 801.00 406.50 L 800.00 406.50 L 799.00 406.50 L 798.00 406.50 L 797.00 406.50 L 796.00 406.50 L 795.00 406.50 L 794.00 406.50 L 793.00 406.50 L 792.00 406.50 L 791.00 406.50 L 790.00 406.50 L 789.00 406.50 L 788.00 406.50 L 787.00 406.50 L 786.00 406.50 L 785.00 406.50 L 784.00 406.50 L 783.00 406.50 L 782.00 406.50 L 781.00 406.50 L 780.00 406.50 L 779.00 406.50 L 778.00 406.50 L 777.00 406.50 L 776.00 406.50 L 775.00 406.50 L 774.00 406.50 L 773.00 406.50 L 772.00 406.50 L 771.00 406.50 L 770.00 406.50 L 769.00 406.50 L 768.00 406.50 L 767.00 406.50 L 766.00 406.50 L 765.00 406.50 L 764.00 406.50 L 763.00 406.50 L 762.00 406.50 L 761.00 406.50 L 760.00 406.50 L 759.00 406.50 L 758.00 406.50 L 757.00 406.50 L 756.00 406.50 L 755.00 406.50 L 754.00 406.50 L 753.00 406.50 L 752.00 406.50 L 751.00 406.50 L 750.00 406.50 L 749.00 406.50 L 748.00 406.50 L 747.00 406.50 L 746.00 406.50 L 745.00 406.50 L 744.00 406.50 L 743.00 406.50 L 742.00 406.50 L 741.00 406.50 L 740.00 406.50 L 739.00 406.50 L 738.00 406.50 L 737.00 406.50 L 736.00 406.50 L 735.00 406.50 L 734.00 406.50 L 733.00 406.50 L 732.00 406.50 L 731.00 406.50 L 730.00 406.50 L 729.00 406.50 L 728.00 406.50 L 727.00 406.50 L 726.00 406.50 L 725.00 406.50 L 724.00 406.50 L 723.00 406.50 L 722.00 406.50 L 721.00 406.50 L 720.00 406.50 L 719.00 406.50 L 718.00 406.50 L 717.00 406.50 L 716.00 406.50 L 715.00 406.50 L 714.00 406.50 L 713.00 406.50 L 712.00 406.50 L 711.00 406.50 L 710.00 406.50 L 709.00 406.50 L 708.00 406.50 L 707.00 406.50 L 706.00 406.50 L 705.00 406.50 L 704.00 406.50 L 703.00 406.50 L 702.00 406.50 L 701.00 406.50 L 700.00 406.50 L 699.00 406.50 L 698.00 406.50 L 697.00 406.50 L 696.00 406.50 L 695.00 406.50 L 694.00 406.50 L 693.00 406.50 L 692.00 406.50 L 691.00 406.50 L 690.00 406.50 L 689.00 406.50 L 688.00 406.50 L 687.00 406.50 L 686.00 406.50 L 685.00 406.50 L 684.00 406.50 L 683.00 406.50 L 682.00 406.50 L 681.00 406.50 L 680.00 406.50 L 679.00 406.50 L 678.00 406.50 L 677.00 406.50 L 676.00 406.50 L 675.00 406.50 L 674.00 406.50 L 673.00 406.50 L 672.00 406.50 L 671.00 406.50 L 670.00 406.50 L 669.00 406.50 L 668.00 406.50 L 667.00 406.50 L 666.00 406.50 L 665.00 406.50 L 664.00 406.50 L 663.00 406.50 L 662.00 406.50 L 661.00 406.50 L 660.00 406.50 L 659.00 406.50 L 658.00 406.50 L 657.00 406.50 L 656.00 406.50 L 655.00 406.50 L 654.00 406.50 L 653.00 406.50 L 652.00 406.50 L 651.00 406.50 L 650.00 406.50 L 649.00 406.50 L 648.00 406.50 L 647.00 406.50 L 646.00 406.50 L 645.00 406.50 L 644.00 406.50 L 643.00 406.50 L 642.00 406.50 L 641.00 406.50 L 640.00 406.50 L 639.00 406.50 L 638.00 406.50 L 637.00 406.50 L 636.00 406.50 L 635.00 406.50 L 634.00 406.50 L 633.00 406.50 L 632.00 406.50 L 631.00 406.50 L 630.00 406.50 L 629.00 406.50 L 628.00 406.50 L 627.00 406.50 L 626.00 406.50 L 625.00 406.50 L 624.00 406.50 L 623.00 406.50 L 622.00 406.50 L 621.00 406.50 L 620.00 406.50 L 619.00 406.50 L 618.00 406.50 L 617.00 406.50 L 616.00 406.50 L 615.00 406.50 L 614.00 406.50 L 613.00 406.50 L 612.00 406.50 L 611.00 406.50 L 610.00 406.50 L 609.00 406.50 L 608.00 406.50 L 607.00 406.50 L 606.00 406.50 L 605.00 406.50 L 604.00 406.50 L 603.00 406.50 L 602.00 406.50 L 601.00 406.50 L 600.00 406.50 L 599.00 406.50 L 598.00 406.50 L 597.00 406.50 L 596.00 406.50 L 595.00 406.50 L 594.00 406.50 L 593.00 406.50 L 592.00 406.50 L 591.00 406.50 L 590.00 406.50 L 589.00 406.50 L 588.00 406.50 L 587.00 406.50 L 586.00 406.50 L 585.00 406.50 L 584.00 406.50 L 583.00 406.50 L 582.00 406.50 L 581.00 406.50 L 580.00 406.50 L 579.00 406.50 L 578.00 406.50 L 577.00 406.50 L 576.00 406.50 L 575.00 406.50 L 574.00 406.50 L 573.00 406.50 L 572.00 406.50 L 571.00 406.50 L 570.00 406.50 L 569.00 406.50 L 568.00 406.50 L 567.00 406.50 L 566.00 406.50 L 565.00 406.50 L 564.00 406.50 L 563.00 406.50 L 562.00 406.50 L 561.00 406.50 L 560.00 406.50 L 559.00 406.50 L 558.00 406.50 L 557.00 406.50 L 556.00 406.50 L 555.00 406.50 L 554.00 406.50 L 553.00 406.50 L 552.00 406.50 L 551.00 406.50 L 550.00 406.50 L 549.00 406.50 L 548.00 406.50 L 547.00 406.50 L 546.00 406.50 L 545.00 406.50 L 544.00 406.50 L 543.00 406.50 L 542.00 406.50 L 541.00 406.50 L 540.00 406.50 L 539.00 406.50 L 538.00 406.50 L 537.00 406.50 L 536.00 406.50 L 535.00 406.50 L 534.00 406.50 L 533.00 406.50 L 532.00 406.50 L 531.00 406.50 L 530.00 406.50 L 529.00 406.50 L 528.00 406.50 L 527.00 406.50 L 526.00 406.50 L 525.00 406.50 L 524.00 406.50 L 523.00 406.50 L 522.00 406.50 L 521.00 406.50 L 520.00 406.50 L 519.00 406.50 L 518.00 406.50 L 517.00 406.50 L 516.00 406.50 L 515.00 406.50 L 514.00 406.50 L 513.00 406.50 L 512.00 406.50 L 511.00 406.50 L 510.00 406.50 L 509.00 406.50 L 508.00 406.50 L 507.00 406.50 L 506.00 406.50 L 505.00 406.50 L 504.00 406.50 L 503.00 406.50 L 502.00 406.50 L 501.00 406.50 L 500.00 406.50 L 499.00 406.50 L 498.00 406.50 L 497.00 406.50 L 496.00 406.50 L 495.00 406.50 L 494.00 406.50 L 493.00 406.50 L 492.00 406.50 L 491.00 406.50 L 490.00 406.50 L 489.00 406.50 L 488.00 406.50 L 487.00 406.50 L 486.00 406.50 L 485.00 406.50 L 484.00 406.50 L 483.00 406.50 L 482.00 406.50 L 481.00 406.50 L 480.00 406.50 L 479.00 406.50 L 478.00 406.50 L 477.00 406.50 L 476.00 406.50 L 475.00 406.50 L 474.00 406.50 L 473.00 406.50 L 472.00 406.50 L 471.00 406.50 L 470.00 406.50 L 469.00 406.50 L 468.00 406.50 L 467.00 406.50 L 466.00 406.50 L 465.00 406.50 L 464.00 406.50 L 463.00 406.50 L 462.00 406.50 L 461.00 406.50 L 460.00 406.50 L 459.00 406.50 L 458.00 406.50 L 457.00 406.50 L 456.00 406.50 L 455.00 406.50 L 454.00 406.50 L 453.00 406.50 L 452.00 406.50 L 451.00 406.50 L 450.00 406.50 L 449.00 406.50 L 448.00 406.50 L 447.00 406.50 L 446.00 406.50 L 445.00 406.50 L 444.00 406.50 L 443.00 406.50 L 442.00 406.50 L 441.00 406.50 L 440.00 406.50 L 439.00 406.50 L 438.00 406.50 L 437.00 406.50 L 436.00 406.50 L 435.00 406.50 L 434.00 406.50 L 433.00 406.50 L 432.00 406.50 L 431.00 406.50 L 430.00 406.50 L 429.00 406.50 L 428.00 406.50 L 427.00 406.50 L 426.00 406.50 L 425.00 406.50 L 424.00 406.50 L 423.00 406.50 L 422.00 406.50 L 421.00 406.50 L 420.00 406.50 L 419.00 406.50 L 418.00 406.50 L 417.00 406.50 L 416.00 406.50 L 415.00 406.50 L 414.00 406.50 L 413.00 406.50 L 412.00 406.50 L 411.00 406.50 L 410.00 406.50 L 409.00 406.50 L 408.00 406.50 L 407.00 406.50 L 406.00 406.50 L 405.00 406.50 L 404.00 406.50 L 403.00 406.50 L 402.00 406.50 L 401.00 406.50 L 400.00 406.50 L 399.00 406.50 L 398.00 406.50 L 397.00 406.50 L 396.00 406.50 L 395.00 406.50 L 394.00 406.50 L 393.00 406.50 L 392.00 406.50 L 391.00 406.50 L 390.00 406.50 L 389.00 406.50 L 388.00 406.50 L 387.00 406.50 L 386.00 406.50 L 385.00 406.50 L 384.00 406.50 L 383.00 406.50 L 382.00 406.50 L 381.00 406.50 L 380.00 406.50 L 379.00 406.50 L 378.00 406.50 L 377.00 406.50 L 376.00 406.50 L 375.00 406.50 L 374.00 406.50 L 373.00 406.50 L 372.00 406.50 L 371.00 406.50 L 370.00 406.50 L 369.00 406.50 L 368.00 406.50 L 367.00 406.50 L 366.00 406.50 L 365.00 406.50 L 364.00 406.50 L 363.00 406.50 L 362.00 406.50 L 361.00 406.50 L 360.00 406.50 L 359.00 406.50 L 358.00 406.50 L 357.00 406.50 L 356.00 406.50 L 355.00 406.50 L 354.00 406.50 L 353.00 406.50 L 352.00 406.50 L 351.00 406.50 L 350.00 406.50 L 349.00 406.50 L 348.00 406.50 L 347.00 406.50 L 346.00 406.50 L 345.00 406.50 L 344.00 406.50 L 343.00 406.50 L 342.00 406.50 L 341.00 406.50 L 340.00 406.50 L 339.00 406.50 L 338.00 406.50 L 337.00 406.50 L 336.00 406.50 L 335.00 406.50 L 334.00 406.50 L 333.00 406.50 L 332.00 406.50 L 331.00 406.50 L 330.00 406.50 L 329.00 406.50 L 328.00 406.50 L 327.00 406.50 L 326.00 406.50 L 325.00 406.50 L 324.00 406.50 L 323.00 406.50 L 322.00 406.50 L 321.00 406.50 L 320.00 406.50 L 319.00 406.50 L 318.00 406.50 L 317.00 406.50 L 316.00 406.50 L 315.00 406.50 L 314.00 406.50 L 313.00 406.50 L 312.00 406.50 L 311.00 406.50 L 310.00 406.50 L 309.00 406.50 L 308.00 406.50 L 307.00 406.50 L 306.00 406.50 L 305.00 406.50 L 304.00 406.50 L 303.00 406.50 L 302.00 406.50 L 301.00 406.50 L 300.00 406.50 L 299.00 406.50 L 298.00 406.50 L 297.00 406.50 L 296.00 406.50 L 295.00 406.50 L 294.00 406.50 L 293.00 406.50 L 292.00 406.50 L 291.00 406.50 L 290.00 406.50 L 289.00 406.50 L 288.00 406.50 L 287.00 406.50 L 286.00 406.50 L 285.00 406.50 L 284.00 406.50 L 283.00 406.50 L 282.00 406.50 L 281.00 406.50 L 280.00 406.50 L 279.00 406.50 L 278.00 406.50 L 277.00 406.50 L 276.00 406.50 L 275.00 406.50 L 274.00 406.50 L 273.00 406.50 L 272.00 406.50 L 271.00 406.50 L 270.00 406.50 L 269.00 406.50 L 268.00 406.50 L 267.00 406.50 L 266.00 406.50 L 265.00 406.50 L 264.00 406.50 L 263.00 406.50 L 262.00 406.50 L 261.00 406.50 L 260.00 406.50 L 259.00 406.50 L 258.00 406.50 L 257.00 406.50 L 256.00 406.50 L 255.00 406.50 L 254.00 406.50 L 253.00 406.50 L 252.00 406.50 L 251.00 406.50 L 250.00 406.50 L 249.00 406.50 L 248.00 406.50 L 247.00 406.50 L 246.00 406.50 L 245.00 406.50 L 244.00 406.50 L 243.00 406.50 L 242.00 406.50 L 241.00 406.50 L 240.00 406.50 L 239.00 406.50 L 238.00 406.50 L 237.00 406.50 L 236.00 406.50 L 235.00 406.50 L 234.00 406.50 L 233.00 406.50 L 232.00 406.50 L 231.00 406.50 L 230.00 406.50 L 229.00 406.50 L 228.00 406.50 L 227.00 406.50 L 226.00 406.50 L 225.00 406.50 L 224.00 406.50 L 223.00 406.50 L 222.00 406.50 L 221.00 406.50 L 220.00 406.50 L 219.00 406.50 L 218.00 406.50 L 217.00 406.50 L 216.00 406.50 L 215.00 406.50 L 214.00 406.50 L 213.00 406.50 L 212.00 406.50 L 211.00 406.50 L 210.00 406.50 L 209.00 406.50 L 208.00 406.50 L 207.00 406.50 L 206.00 406.50 L 205.00 406.50 L 204.00 406.50 L 203.00 406.50 L 202.00 406.50 L 201.00 406.50 L 200.00 406.50 L 199.00 406.50 L 198.00 406.50 L 197.00 406.50 L 196.00 406.50 L 195.00 406.50 L 194.00 406.50 L 193.00 406.50 L 192.00 406.50 L 191.00 406.50 L 190.00 406.50 L 189.00 406.50 L 188.00 406.50 L 187.00 406.50 L 186.00 406.50 L 185.00 406.50 L 184.00 406.50 L 183.00 406.50 L 182.00 406.50 L 181.00 406.50 L 180.00 406.50 L 179.00 406.50 L 178.00 406.50 L 177.00 406.50 L 176.00 406.50 L 175.00 406.50 L 174.00 406.50 L 173.00 406.50 L 172.00 406.50 L 171.00 406.50 L 170.00 406.50 L 169.00 406.50 L 168.00 406.50 L 167.00 406.50 L 166.00 406.50 L 165.00 406.50 L 164.00 406.50 L 163.00 406.50 L 162.00 406.50 L 161.00 406.50 L 160.00 406.50 L 159.00 406.50 L 158.00 406.50 L 157.00 406.50 L 156.00 406.50 L 155.00 406.50 L 154.00 406.50 L 153.00 406.50 L 152.00 406.50 L 151.00 406.50 L 150.00 406.50 L 149.00 406.50 L 148.00 406.50 L 147.00 406.50 L 146.00 406.50 L 145.00 406.50 L 144.00 406.50 L 143.00 406.50 L 142.00 406.50 L 141.00 406.50 L 140.00 406.50 L 139.00 406.50 L 138.00 406.50 L 137.00 406.50 L 136.00 406.50 L 135.00 406.50 L 134.00 406.50 L 133.00 406.50 L 132.00 406.50 L 131.00 406.50 L 130.00 406.50 L 129.00 406.50 L 128.00 406.50 L 127.00 406.50 L 126.00 406.50 L 125.00 406.50 L 124.00 406.50 L 123.00 406.50 L 122.00 406.50 L 121.00 406.50 L 120.00 406.50 L 119.00 406.50 L 118.00 406.50 L 117.00 406.50 L 116.00 406.50 L 115.00 406.50 L 114.00 406.50 L 113.00 406.50 L 112.00 406.50 L 111.00 406.50 L 110.00 406.50 L 109.00 406.50 L 108.00 406.50 L 107.00 406.50 L 106.00 406.50 L 105.00 406.50 L 104.00 406.50 L 103.00 406.50 L 102.00 406.50 L 101.00 406.50 L 100.00 406.50 L 99.00 406.50 L 98.00 406.50 L 97.00 406.50 L 96.00 406.50 L 95.00 406.50 L 94.00 406.50 L 93.00 406.50 L 92.00 406.50 L 91.00 406.50 L 90.00 406.50 L 89.00 406.50 L 88.00 406.50 L 87.00 406.50 L 86.00 406.50 L 85.00 406.50 L 84.00 406.50 L 83.00 406.50 L 82.00 406.50 L 81.00 406.50 L 80.00 406.50 L 79.00 406.50 L 78.00 406.50 L 77.00 406.50 L 76.00 406.50 L 75.00 406.50 L 74.00 406.50 L 73.00 406.50 L 72.00 406.50 L 71.00 406.50 L 70.00 406.50 L 69.00 406.50 L 68.00 406.50 L 67.00 406.50 L 66.00 406.50 L 65.00 406.50 L 64.00 406.50 L 63.00 406.50 L 62.00 406.50 L 61.00 406.50 L 60.00 406.50 L 59.00 406.50 L 58.00 406.50 L 57.00 406.50 L 56.00 406.50 L 55.00 406.50 L 54.00 406.50 L 53.00 406.50 L 52.00 406.50 L 51.00 406.50 L 50.00 406.50 L 49.00 406.50 L 48.00 406.50 L 47.00 406.50 L 46.00 406.50 L 45.00 406.50 L 44.00 406.50 L 43.00 406.50 L 42.00 406.50 L 41.00 406.50 L 40.00 406.50 L 39.00 406.50 L 38.00 406.50 L 37.00 406.50 L 36.00 406.50 L 35.00 406.50 L 34.00 406.50 L 33.00 406.50 L 32.00 406.50 L 31.00 406.50 L 30.00 406.50 L 29.00 406.50 L 28.00 406.50 L 27.00 406.50 L 26.00 406.50 L 25.00 406.50 L 24.00 406.50 L 23.00 406.50 L 22.00 406.50 L 21.00 406.50 L 20.00 406.50 L 19.00 406.50 L 18.00 406.50 L 17.00 406.50 L 16.00 406.50 L 15.00 406.50 L 14.00 406.50 L 13.00 406.50 L 12.00 406.50 L 11.00 406.50 L 10.00 406.50 L 9.00 406.50 L 8.00 406.50 L 7.00 406.50 L 6.00 406.50 L 5.00 406.50 L 4.00 406.50 L 3.00 406.50 L 2.00 406.50 L 1.00 406.50 L 0.00 406.50 Z"/>
  </g>
</svg>
